<?xml version="1.0" encoding="utf-8"?>
<!-- Generator: Adobe Illustrator 19.2.1, SVG Export Plug-In . SVG Version: 6.00 Build 0)  -->
<svg version="1.1" xmlns="http://www.w3.org/2000/svg" xmlns:xlink="http://www.w3.org/1999/xlink" x="0px" y="0px"
	 viewBox="0 0 310.3 310.3" style="enable-background:new 0 0 310.3 310.3;" xml:space="preserve">
<style type="text/css">
	.st0{stroke:#FFFFFF;stroke-miterlimit:10;}
	.st1{fill:#FFFFFF;stroke:#FFFFFF;stroke-miterlimit:10;}
</style>
<g id="Layer_2">
	<circle class="st0" cx="155.2" cy="155.2" r="155.2"/>
</g>
<g id="Layer_1">
	<path class="st1" d="M155.3,6h0.6c0.8,0,1.5,0.7,1.5,1.5S156.7,9,155.9,9h-0.6c-0.8,0-1.5-0.7-1.5-1.5S154.5,6,155.3,6z M149.3,6.1
		c0.8,0,1.5,0.6,1.5,1.4s-0.6,1.5-1.4,1.6h-0.6c-0.9,0-1.5-0.6-1.6-1.4c0-0.8,0.6-1.5,1.4-1.6L149.3,6.1
		C149.2,6.1,149.3,6.1,149.3,6.1z M161.9,6.2C162,6.2,162,6.2,161.9,6.2h0.7c0.8,0,1.5,0.7,1.4,1.6c0,0.8-0.8,1.5-1.6,1.4h-0.6
		c-0.8,0-1.5-0.7-1.4-1.6C160.5,6.8,161.1,6.2,161.9,6.2z M142.7,6.5c0.8,0,1.4,0.6,1.5,1.4s-0.5,1.6-1.4,1.6l-0.6,0.1
		c-0.8,0.1-1.6-0.5-1.6-1.4c-0.1-0.8,0.5-1.6,1.4-1.6l0.6-0.1C142.6,6.5,142.6,6.5,142.7,6.5z M168.5,6.6h0.1l0.6,0.1
		c0.8,0.1,1.4,0.8,1.4,1.6c-0.1,0.8-0.8,1.4-1.6,1.4l-0.6-0.1C167.6,9.5,167,8.8,167,8C167.1,7.2,167.8,6.6,168.5,6.6z M136.1,7.2
		c0.7,0,1.4,0.5,1.5,1.3s-0.5,1.6-1.3,1.7l-0.6,0.1c-0.8,0.1-1.6-0.5-1.7-1.3c-0.1-0.8,0.5-1.6,1.3-1.7l0.6-0.1
		C135.9,7.2,136,7.2,136.1,7.2z M175.1,7.3c0.1,0,0.1,0,0.2,0l0.6,0.1c0.8,0.1,1.4,0.9,1.3,1.7c-0.1,0.8-0.9,1.4-1.7,1.3l-0.6-0.1
		c-0.8-0.1-1.4-0.9-1.3-1.7C173.7,7.9,174.4,7.3,175.1,7.3z M129.5,8.2c0.7,0,1.3,0.5,1.5,1.2c0.1,0.8-0.4,1.6-1.2,1.7l-0.6,0.1
		c-0.8,0.1-1.6-0.4-1.7-1.2s0.4-1.6,1.2-1.7l0.6-0.1C129.4,8.2,129.4,8.2,129.5,8.2z M181.7,8.4c0.1,0,0.2,0,0.3,0l0.6,0.1
		c0.8,0.2,1.4,0.9,1.2,1.8c-0.2,0.8-1,1.4-1.8,1.2l-0.6-0.1c-0.8-0.1-1.4-0.9-1.2-1.7C180.3,8.9,181,8.4,181.7,8.4z M123,9.5
		c0.7,0,1.3,0.5,1.5,1.2c0.2,0.8-0.3,1.6-1.1,1.8l-0.6,0.1c-0.8,0.2-1.6-0.3-1.8-1.1c-0.2-0.8,0.3-1.6,1.1-1.8l0.6-0.1
		C122.8,9.5,122.9,9.5,123,9.5z M188.2,9.7c0.1,0,0.2,0,0.3,0l0.6,0.1c0.8,0.2,1.3,1,1.1,1.8s-1,1.3-1.8,1.1l-0.6-0.1
		c-0.8-0.2-1.3-1-1.1-1.8C186.9,10.2,187.5,9.7,188.2,9.7z M116.6,11.1c0.7,0,1.3,0.4,1.5,1.1c0.2,0.8-0.2,1.6-1,1.9l-0.6,0.2
		c-0.8,0.2-1.6-0.3-1.9-1.1c-0.2-0.8,0.3-1.6,1.1-1.9l0.6-0.2C116.3,11.1,116.5,11.1,116.6,11.1z M194.6,11.3c0.1,0,0.3,0,0.4,0.1
		l0.6,0.2c0.8,0.2,1.3,1.1,1,1.9c-0.2,0.8-1.1,1.3-1.9,1l-0.6-0.2c-0.8-0.2-1.3-1-1.1-1.9C193.3,11.8,193.9,11.3,194.6,11.3z
		 M110.2,13c0.6,0,1.2,0.4,1.4,1c0.3,0.8-0.2,1.6-1,1.9l-0.6,0.2c-0.8,0.3-1.6-0.2-1.9-1s0.2-1.6,1-1.9l0.6-0.2
		C109.9,13,110.1,13,110.2,13z M200.9,13.2c0.2,0,0.3,0,0.5,0.1l0.6,0.2c0.8,0.3,1.2,1.1,1,1.9c-0.3,0.8-1.1,1.2-1.9,1l-0.6-0.2
		c-0.8-0.3-1.2-1.1-1-1.9C199.7,13.6,200.3,13.2,200.9,13.2z M104,15.1c0.6,0,1.2,0.4,1.4,1c0.3,0.8-0.1,1.6-0.9,1.9l-0.6,0.2
		c-0.8,0.3-1.6-0.1-1.9-0.9s0.1-1.6,0.9-1.9l0.6-0.2C103.6,15.1,103.8,15.1,104,15.1z M207.2,15.4c0.2,0,0.4,0,0.5,0.1l0.6,0.2
		c0.8,0.3,1.2,1.2,0.9,2c-0.3,0.8-1.2,1.2-2,0.9l-0.5-0.2c-0.8-0.3-1.2-1.2-0.9-1.9C206,15.8,206.6,15.4,207.2,15.4z M97.8,17.5
		c0.6,0,1.1,0.3,1.4,0.9c0.3,0.8,0,1.7-0.8,2l-0.5,0.2c-0.8,0.3-1.6,0-2-0.8c-0.3-0.8,0-1.7,0.8-2l0.6-0.2
		C97.4,17.6,97.6,17.5,97.8,17.5z M213.4,17.9c0.2,0,0.4,0,0.6,0.1l0.6,0.2c0.8,0.3,1.1,1.2,0.8,2s-1.2,1.1-2,0.8l-0.6-0.2
		c-0.8-0.3-1.1-1.2-0.8-2C212.2,18.3,212.8,17.9,213.4,17.9z M91.8,20.3c0.6,0,1.1,0.3,1.4,0.9c0.4,0.8,0.1,1.7-0.7,2l-0.6,0.3
		c-0.7,0.4-1.6,0-2-0.7c-0.4-0.8,0-1.7,0.7-2l0.5-0.3C91.3,20.3,91.6,20.3,91.8,20.3z M219.4,20.7c0.2,0,0.4,0,0.7,0.1l0.6,0.3
		c0.7,0.4,1.1,1.3,0.7,2c-0.4,0.7-1.3,1.1-2,0.7l-0.5-0.3c-0.8-0.4-1.1-1.3-0.7-2C218.3,21,218.9,20.7,219.4,20.7z M85.9,23.2
		c0.5,0,1,0.3,1.3,0.8c0.4,0.7,0.1,1.6-0.6,2l-0.5,0.3c-0.7,0.4-1.6,0.1-2-0.6s-0.1-1.6,0.6-2l0.5-0.3
		C85.4,23.3,85.6,23.2,85.9,23.2z M225.3,23.7c0.2,0,0.5,0.1,0.7,0.2l0.5,0.3c0.7,0.4,1,1.3,0.6,2s-1.3,1-2,0.6l-0.6-0.3
		c-0.7-0.4-1-1.3-0.6-2C224.3,24,224.8,23.7,225.3,23.7z M80,26.6c0.5,0,1,0.2,1.3,0.7c0.4,0.7,0.3,1.6-0.4,2l-0.3,0.2
		c-0.7,0.4-1.8,0.3-2.2-0.4c-0.4-0.7-0.3-1.6,0.4-2l0.3-0.2C79.3,26.7,79.6,26.6,80,26.6z M231.1,27c0.3,0,0.5,0.1,0.8,0.2l0.5,0.3
		c0.7,0.4,0.9,1.4,0.5,2.1s-1.4,0.9-2.1,0.5l-0.5-0.3c-0.7-0.4-1-1.3-0.5-2.1C230.1,27.3,230.6,27,231.1,27z M74.5,30
		c0.5,0,1,0.2,1.3,0.7c0.5,0.7,0.3,1.6-0.4,2.1l-0.5,0.3c-0.7,0.4-1.6,0.3-2.1-0.4s-0.3-1.6,0.4-2.1l0.5-0.3
		C73.9,30,74.2,30,74.5,30z M236.7,30.5c0.3,0,0.6,0.1,0.8,0.3l0.5,0.3c0.7,0.5,0.9,1.4,0.4,2.1c-0.5,0.7-1.4,0.9-2.1,0.4l-0.5-0.3
		c-0.7-0.5-0.9-1.4-0.4-2.1C235.7,30.8,236.2,30.5,236.7,30.5z M69,33.7c0.5,0,0.9,0.2,1.2,0.6c0.5,0.7,0.3,1.6-0.3,2.1l-0.5,0.4
		c-0.7,0.5-1.6,0.3-2.1-0.3c-0.5-0.7-0.3-1.6,0.3-2.1l0.5-0.4C68.4,33.8,68.7,33.7,69,33.7z M242.2,34.3c0.3,0,0.6,0.1,0.9,0.3
		l0.5,0.4c0.7,0.5,0.8,1.4,0.3,2.1c-0.5,0.7-1.4,0.8-2.1,0.3l-0.5-0.4c-0.7-0.5-0.8-1.4-0.3-2.1C241.2,34.6,241.7,34.3,242.2,34.3z
		 M63.7,37.7c0.4,0,0.9,0.2,1.2,0.6c0.5,0.6,0.4,1.6-0.2,2.1l-0.5,0.4c-0.7,0.5-1.6,0.4-2.1-0.2c-0.5-0.7-0.4-1.6,0.2-2.1l0.5-0.4
		C63.1,37.8,63.4,37.7,63.7,37.7z M247.4,38.4c0.3,0,0.7,0.1,1,0.3l0.4,0.4c0.7,0.5,0.8,1.5,0.3,2.1c-0.5,0.7-1.5,0.8-2.1,0.3
		l-0.5-0.4c-0.6-0.5-0.7-1.5-0.2-2.1C246.6,38.6,247,38.4,247.4,38.4z M58.6,41.9c0.4,0,0.9,0.2,1.2,0.5c0.5,0.6,0.5,1.6-0.2,2.1
		L59.2,45c-0.6,0.5-1.6,0.5-2.1-0.1c-0.6-0.6-0.5-1.6,0.1-2.1l0.5-0.4C57.9,42,58.3,41.9,58.6,41.9z M252.5,42.6
		c0.4,0,0.7,0.1,1,0.4l0.4,0.4c0.6,0.5,0.7,1.5,0.2,2.1s-1.5,0.7-2.1,0.2l-0.5-0.4c-0.6-0.5-0.7-1.5-0.1-2.1
		C251.7,42.8,252.1,42.6,252.5,42.6z M53.7,46.4c0.4,0,0.8,0.2,1.1,0.5c0.6,0.6,0.5,1.6-0.1,2.1l-0.4,0.4c-0.6,0.6-1.6,0.6-2.1,0
		c-0.6-0.6-0.6-1.6,0-2.1l0.4-0.4C53,46.5,53.3,46.4,53.7,46.4z M257.4,47.1c0.4,0,0.8,0.1,1,0.4l0.4,0.4c0.6,0.6,0.6,1.5,0,2.1
		s-1.5,0.6-2.1,0l-0.4-0.4c-0.6-0.6-0.6-1.5,0-2.1C256.6,47.3,257,47.1,257.4,47.1z M49,51c0.4,0,0.8,0.1,1,0.4
		c0.6,0.6,0.6,1.5,0,2.1L49.7,54c-0.6,0.6-1.5,0.6-2.1,0s-0.6-1.5,0-2.1l0.4-0.4C48.2,51.2,48.6,51,49,51z M262.1,51.8
		c0.4,0,0.8,0.2,1.1,0.5l0.4,0.4c0.6,0.6,0.5,1.6-0.1,2.1c-0.6,0.6-1.6,0.5-2.1-0.1l-0.4-0.4c-0.6-0.6-0.6-1.6,0-2.1
		C261.3,51.9,261.7,51.8,262.1,51.8z M44.5,55.9c0.3,0,0.7,0.1,1,0.4c0.6,0.5,0.7,1.5,0.2,2.1l-0.4,0.5c-0.6,0.6-1.5,0.7-2.1,0.1
		c-0.6-0.5-0.7-1.5-0.1-2.1l0.4-0.4C43.7,56.1,44.1,55.9,44.5,55.9z M266.5,56.7c0.4,0,0.8,0.2,1.1,0.5l0.4,0.5
		c0.5,0.6,0.5,1.6-0.2,2.1c-0.6,0.5-1.6,0.5-2.1-0.2l-0.4-0.4c-0.5-0.6-0.5-1.6,0.1-2.1C265.8,56.8,266.2,56.7,266.5,56.7z M40.2,61
		c0.3,0,0.7,0.1,0.9,0.3c0.7,0.5,0.8,1.5,0.3,2.1L41,63.9c-0.5,0.6-1.5,0.7-2.1,0.2s-0.7-1.5-0.2-2.1l0.4-0.4
		C39.3,61.2,39.8,61,40.2,61z M270.8,61.8c0.4,0,0.9,0.2,1.2,0.6l0.4,0.5c0.5,0.7,0.4,1.6-0.2,2.1s-1.6,0.4-2.1-0.2l-0.4-0.5
		c-0.5-0.7-0.4-1.6,0.2-2.1C270.1,61.9,270.4,61.8,270.8,61.8z M36.2,66.2c0.3,0,0.6,0.1,0.9,0.3c0.7,0.5,0.8,1.4,0.3,2.1L37,69.1
		c-0.5,0.7-1.4,0.8-2.1,0.3c-0.7-0.5-0.8-1.4-0.3-2.1l0.4-0.5C35.3,66.4,35.7,66.2,36.2,66.2z M274.8,67.1c0.5,0,0.9,0.2,1.2,0.6
		l0.4,0.5c0.5,0.7,0.3,1.6-0.3,2.1c-0.7,0.5-1.6,0.3-2.1-0.3l-0.4-0.5c-0.5-0.7-0.3-1.6,0.3-2.1C274.2,67.2,274.5,67.1,274.8,67.1z
		 M32.4,71.6c0.3,0,0.6,0.1,0.8,0.2c0.7,0.5,0.9,1.4,0.4,2.1l-0.3,0.5c-0.5,0.7-1.4,0.9-2.1,0.4s-0.9-1.4-0.4-2.1l0.3-0.5
		C31.4,71.9,31.9,71.6,32.4,71.6z M278.5,72.5c0.5,0,1,0.2,1.3,0.7l0.3,0.5c0.5,0.7,0.3,1.6-0.4,2.1c-0.7,0.5-1.6,0.3-2.1-0.4
		l-0.3-0.5c-0.5-0.7-0.3-1.6,0.4-2.1C278,72.6,278.3,72.5,278.5,72.5z M28.8,77.2c0.3,0,0.5,0.1,0.8,0.2c0.7,0.4,0.9,1.4,0.5,2.1
		L29.8,80c-0.4,0.7-1.4,1-2.1,0.5c-0.7-0.4-1-1.3-0.5-2.1l0.3-0.5C27.8,77.5,28.3,77.2,28.8,77.2z M282.2,78.2
		c0.4,0,0.9,0.2,1.1,0.6l0.2,0.3c0.4,0.7,0.3,1.8-0.4,2.2c-0.7,0.4-1.6,0.3-2-0.4l-0.2-0.3c-0.4-0.7-0.3-1.8,0.4-2.2
		C281.6,78.3,281.9,78.2,282.2,78.2z M25.5,83c0.2,0,0.5,0.1,0.7,0.2c0.7,0.4,1,1.3,0.6,2l-0.3,0.6c-0.4,0.7-1.3,1-2,0.6
		s-1-1.3-0.6-2l0.3-0.5C24.4,83.3,24.9,83,25.5,83z M285.3,83.9c0.5,0,1.1,0.3,1.3,0.8l0.3,0.5c0.4,0.7,0.1,1.6-0.6,2
		s-1.6,0.1-2-0.6l-0.3-0.5c-0.4-0.7-0.1-1.6,0.6-2C284.8,83.9,285.1,83.9,285.3,83.9z M22.4,88.9c0.2,0,0.4,0,0.6,0.1
		c0.8,0.4,1.1,1.3,0.7,2l-0.3,0.6c-0.4,0.7-1.3,1.1-2,0.7c-0.8-0.4-1.1-1.3-0.7-2l0.3-0.5C21.3,89.2,21.9,88.9,22.4,88.9z
		 M288.3,89.8c0.6,0,1.1,0.3,1.4,0.9l0.3,0.5c0.4,0.7,0,1.6-0.7,2c-0.8,0.4-1.7,0-2-0.7l-0.3-0.6c-0.4-0.8,0-1.6,0.7-2
		C287.9,89.8,288.1,89.8,288.3,89.8z M19.6,94.9c0.2,0,0.4,0,0.6,0.1c0.8,0.3,1.1,1.2,0.8,2l-0.2,0.6c-0.3,0.8-1.2,1.1-2,0.8
		c-0.8-0.3-1.1-1.2-0.8-2l0.2-0.6C18.5,95.3,19.1,94.9,19.6,94.9z M291,95.8c0.6,0,1.1,0.3,1.4,0.9l0.2,0.6c0.3,0.8,0,1.7-0.8,2
		s-1.7,0-2-0.8l-0.2-0.5c-0.3-0.8,0-1.6,0.8-2C290.6,95.8,290.8,95.8,291,95.8z M17.1,101.1c0.2,0,0.4,0,0.5,0.1
		c0.8,0.3,1.2,1.2,0.9,1.9l-0.2,0.6c-0.3,0.8-1.2,1.2-1.9,0.9c-0.8-0.3-1.2-1.2-0.9-1.9l0.2-0.6C16,101.4,16.5,101.1,17.1,101.1z
		 M293.5,101.9c0.6,0,1.2,0.4,1.4,1l0.2,0.6c0.3,0.8-0.1,1.6-0.9,1.9s-1.6-0.1-1.9-0.9l-0.2-0.6c-0.3-0.8,0.1-1.6,0.9-1.9
		C293.1,102,293.3,101.9,293.5,101.9z M14.9,107.3c0.2,0,0.3,0,0.5,0.1c0.8,0.3,1.2,1.1,1,1.9l-0.2,0.6c-0.3,0.8-1.1,1.2-1.9,1
		c-0.8-0.3-1.2-1.1-1-1.9l0.2-0.6C13.7,107.7,14.3,107.3,14.9,107.3z M295.7,108.2c0.6,0,1.2,0.4,1.4,1l0.2,0.6
		c0.3,0.8-0.2,1.6-1,1.9s-1.6-0.2-1.9-1l-0.2-0.6c-0.3-0.8,0.2-1.6,1-1.9C295.4,108.2,295.5,108.2,295.7,108.2z M13,113.7
		c0.1,0,0.3,0,0.4,0.1c0.8,0.2,1.3,1.1,1,1.9l-0.2,0.6c-0.2,0.8-1,1.3-1.9,1.1c-0.8-0.2-1.3-1-1.1-1.8l0.2-0.6
		C11.7,114.1,12.3,113.7,13,113.7z M297.6,114.5c0.7,0,1.3,0.4,1.5,1.1l0.2,0.6c0.2,0.8-0.3,1.6-1.1,1.9c-0.8,0.2-1.6-0.3-1.9-1
		l-0.2-0.6c-0.2-0.8,0.3-1.6,1.1-1.8C297.3,114.6,297.4,114.5,297.6,114.5z M11.3,120.1c0.1,0,0.2,0,0.4,0c0.8,0.2,1.3,1,1.1,1.8
		l-0.1,0.6c-0.2,0.8-1,1.3-1.8,1.1c-0.8-0.2-1.3-1-1.1-1.8l0.1-0.6C10,120.6,10.7,120.1,11.3,120.1z M299.2,121
		c0.7,0,1.3,0.5,1.5,1.2l0.1,0.6c0.2,0.8-0.3,1.6-1.1,1.8c-0.8,0.2-1.6-0.3-1.8-1.1l-0.1-0.6c-0.2-0.8,0.3-1.6,1.1-1.8
		C299,121,299.1,121,299.2,121z M10,126.6c0.1,0,0.2,0,0.3,0c0.8,0.1,1.4,0.9,1.2,1.7l-0.1,0.6c-0.1,0.8-1,1.4-1.7,1.2
		c-0.8-0.1-1.4-0.9-1.2-1.7l0.1-0.6C8.6,127.1,9.3,126.6,10,126.6z M300.5,127.5c0.7,0,1.4,0.5,1.5,1.2l0.1,0.6
		c0.1,0.8-0.4,1.6-1.2,1.7c-0.8,0.1-1.6-0.4-1.7-1.2l-0.1-0.6c-0.1-0.8,0.4-1.6,1.2-1.7C300.3,127.5,300.4,127.5,300.5,127.5z
		 M8.9,133.1c0.1,0,0.1,0,0.2,0c0.8,0.1,1.4,0.9,1.3,1.7l-0.1,0.6c-0.1,0.8-0.9,1.4-1.7,1.3c-0.8-0.1-1.4-0.9-1.3-1.7l0.1-0.6
		C7.5,133.7,8.2,133.1,8.9,133.1z M301.5,134c0.7,0,1.4,0.6,1.5,1.3l0.1,0.6c0.1,0.8-0.5,1.6-1.3,1.7c-0.8,0.1-1.6-0.5-1.7-1.3
		l-0.1-0.6c-0.1-0.8,0.5-1.6,1.3-1.7C301.4,134,301.5,134,301.5,134z M8.2,139.7h0.1c0.8,0.1,1.4,0.8,1.4,1.6L9.6,142
		c-0.1,0.8-0.8,1.4-1.6,1.4c-0.8-0.1-1.4-0.8-1.4-1.6l0.1-0.6C6.7,140.3,7.4,139.7,8.2,139.7z M302.2,140.6c0.8,0,1.4,0.6,1.5,1.4
		l0.1,0.6c0.1,0.8-0.5,1.6-1.4,1.6s-1.6-0.5-1.6-1.4v-0.6C300.7,141.4,301.3,140.6,302.2,140.6L302.2,140.6z M7.7,146.3L7.7,146.3
		c0.9,0,1.5,0.7,1.5,1.6v0.6c0,0.8-0.6,1.5-1.6,1.4c-0.8,0-1.5-0.7-1.4-1.6v-0.6C6.2,147,6.9,146.3,7.7,146.3z M302.7,147.2
		c0.8,0,1.5,0.6,1.5,1.4v0.6c0,0.8-0.6,1.5-1.5,1.6c-0.8,0-1.5-0.6-1.5-1.5v-0.6C301.1,148,301.8,147.3,302.7,147.2
		C302.6,147.2,302.6,147.2,302.7,147.2z M7.5,152.9c0.8,0,1.5,0.7,1.5,1.5v0.6c0,0.8-0.7,1.5-1.5,1.5S6,155.9,6,155.1v-0.6
		C6,153.6,6.7,152.9,7.5,152.9z M302.8,153.7c0.8,0,1.5,0.7,1.5,1.5v0.6c0,0.8-0.6,1.6-1.5,1.5c-0.8,0-1.5-0.7-1.5-1.5v-0.6
		C301.3,154.3,302,153.7,302.8,153.7z M7.6,159.6c0.8,0,1.5,0.6,1.5,1.4v0.6c0,0.8-0.6,1.5-1.4,1.6c-0.9,0.1-1.5-0.6-1.6-1.4v-0.6
		C6.1,160.3,6.7,159.6,7.6,159.6L7.6,159.6z M302.7,160.3L302.7,160.3c0.9,0,1.5,0.7,1.5,1.6v0.6c0,0.8-0.8,1.5-1.6,1.4
		c-0.8,0-1.5-0.7-1.4-1.6v-0.6C301.2,160.9,301.9,160.3,302.7,160.3z M8,166.2c0.8,0,1.4,0.6,1.5,1.4l0.1,0.6
		c0.1,0.8-0.5,1.6-1.4,1.6c-0.8,0.1-1.6-0.5-1.6-1.4l-0.1-0.6C6.4,167,7,166.2,8,166.2C7.9,166.2,8,166.2,8,166.2z M302.2,166.9h0.1
		c0.8,0.1,1.4,0.8,1.4,1.6l-0.1,0.6c-0.1,0.8-0.8,1.4-1.6,1.4c-0.8-0.1-1.4-0.8-1.4-1.6l0.1-0.6
		C300.8,167.5,301.4,166.9,302.2,166.9z M8.7,172.8c0.7,0,1.4,0.5,1.5,1.3l0.1,0.6c0.1,0.8-0.5,1.6-1.3,1.7
		c-0.8,0.1-1.6-0.5-1.7-1.3l-0.1-0.6c-0.1-0.8,0.5-1.6,1.3-1.7C8.6,172.8,8.7,172.8,8.7,172.8z M301.5,173.5c0.1,0,0.1,0,0.2,0
		c0.8,0.1,1.4,0.9,1.3,1.7l-0.1,0.6c-0.1,0.8-0.9,1.4-1.7,1.3c-0.8-0.1-1.4-0.9-1.3-1.7l0.1-0.6C300.1,174,300.7,173.5,301.5,173.5z
		 M9.7,179.3c0.7,0,1.4,0.5,1.5,1.2l0.1,0.6c0.1,0.8-0.4,1.6-1.2,1.7c-0.8,0.1-1.6-0.4-1.7-1.2L8.3,181c-0.1-0.8,0.4-1.6,1.2-1.7
		C9.6,179.3,9.7,179.3,9.7,179.3z M300.5,180c0.1,0,0.2,0,0.3,0c0.8,0.1,1.4,0.9,1.2,1.7l-0.1,0.5c-0.2,0.8-0.9,1.4-1.8,1.3
		c-0.8-0.2-1.4-0.9-1.2-1.7l0.1-0.6C299.1,180.5,299.7,180,300.5,180z M11,185.8c0.7,0,1.3,0.5,1.5,1.2l0.1,0.6
		c0.2,0.8-0.3,1.6-1.1,1.8s-1.6-0.3-1.8-1.1l-0.1-0.6c-0.2-0.8,0.3-1.6,1.1-1.8C10.8,185.8,10.9,185.8,11,185.8z M299.1,186.5
		c0.1,0,0.2,0,0.3,0c0.8,0.2,1.3,1,1.1,1.8l-0.1,0.5c-0.2,0.8-1,1.4-1.8,1.2s-1.3-0.9-1.1-1.7l0.1-0.6
		C297.8,187,298.4,186.5,299.1,186.5z M12.6,192.3c0.7,0,1.3,0.4,1.5,1.1l0.2,0.6c0.2,0.8-0.3,1.6-1.1,1.8s-1.6-0.3-1.9-1.1
		l-0.2-0.6c-0.2-0.8,0.3-1.6,1.1-1.8C12.3,192.3,12.5,192.3,12.6,192.3z M297.5,193c0.1,0,0.3,0,0.4,0.1c0.8,0.2,1.3,1,1.1,1.8
		l-0.2,0.6c-0.2,0.8-1,1.3-1.9,1.1c-0.8-0.2-1.3-1-1.1-1.8l0.2-0.6C296.3,193.4,296.9,193,297.5,193z M14.5,198.6
		c0.6,0,1.2,0.4,1.4,1l0.2,0.6c0.3,0.8-0.2,1.6-1,1.9c-0.8,0.3-1.6-0.2-1.9-1l-0.2-0.6c-0.3-0.8,0.2-1.6,1-1.9
		C14.2,198.6,14.3,198.6,14.5,198.6z M295.6,199.3c0.2,0,0.3,0,0.5,0.1c0.8,0.3,1.2,1.1,1,1.9l-0.2,0.6c-0.3,0.8-1.1,1.2-1.9,1
		c-0.8-0.3-1.2-1.1-0.9-1.9l0.2-0.6C294.4,199.7,295,199.3,295.6,199.3z M16.6,204.9c0.6,0,1.2,0.4,1.4,1l0.2,0.6
		c0.3,0.8-0.1,1.6-0.9,1.9c-0.8,0.3-1.6-0.1-1.9-0.9l-0.2-0.6c-0.3-0.8,0.1-1.6,0.9-1.9C16.3,204.9,16.5,204.9,16.6,204.9z
		 M293.4,205.6c0.2,0,0.4,0,0.5,0.1c0.8,0.3,1.2,1.2,0.9,1.9l-0.2,0.6c-0.3,0.8-1.2,1.2-1.9,0.9c-0.8-0.3-1.2-1.2-0.9-1.9l0.2-0.6
		C292.2,205.9,292.8,205.6,293.4,205.6z M19.1,211c0.6,0,1.2,0.4,1.4,0.9l0.2,0.5c0.3,0.8,0,1.6-0.8,2c-0.8,0.3-1.6,0-2-0.8
		l-0.2-0.6c-0.3-0.8,0-1.7,0.8-2C18.7,211.1,18.9,211,19.1,211z M290.9,211.7c0.2,0,0.4,0,0.6,0.1c0.8,0.3,1.1,1.2,0.8,2l-0.2,0.6
		c-0.3,0.8-1.2,1.1-2,0.8s-1.1-1.2-0.8-2l0.2-0.6C289.8,212.1,290.4,211.7,290.9,211.7z M21.8,217.1c0.6,0,1.1,0.3,1.4,0.8l0.3,0.6
		c0.4,0.8,0,1.7-0.7,2c-0.7,0.4-1.6,0-2-0.7l-0.2-0.5c-0.4-0.7-0.1-1.7,0.7-2C21.3,217.1,21.6,217.1,21.8,217.1z M288.2,217.8
		c0.2,0,0.4,0.1,0.7,0.2c0.8,0.4,1.1,1.3,0.7,2l-0.3,0.5c-0.4,0.8-1.3,1.1-2,0.7c-0.8-0.4-1.1-1.3-0.7-2l0.3-0.6
		C287.1,218.1,287.6,217.8,288.2,217.8z M24.8,223c0.5,0,1,0.3,1.3,0.8l0.3,0.6c0.4,0.7,0.1,1.6-0.6,2s-1.6,0.1-2-0.6l-0.3-0.5
		c-0.4-0.7-0.1-1.6,0.6-2.1C24.3,223,24.5,223,24.8,223z M285.2,223.7c0.2,0,0.5,0.1,0.7,0.2c0.7,0.4,1,1.3,0.6,2l-0.3,0.5
		c-0.4,0.7-1.3,1-2,0.6s-1-1.3-0.6-2l0.3-0.5C284.1,224,284.6,223.7,285.2,223.7z M28,228.7c0.5,0,1,0.3,1.3,0.7l0.3,0.5
		c0.4,0.7,0.2,1.6-0.5,2.1c-0.7,0.4-1.6,0.2-2.1-0.5l-0.3-0.5c-0.4-0.7-0.2-1.6,0.5-2.1C27.5,228.8,27.7,228.7,28,228.7z
		 M281.9,229.5c0.3,0,0.5,0.1,0.8,0.2c0.7,0.4,0.9,1.4,0.5,2.1l-0.3,0.5c-0.4,0.7-1.4,0.9-2.1,0.5s-0.9-1.4-0.5-2.1l0.3-0.5
		C280.9,229.7,281.4,229.5,281.9,229.5z M31.5,234.4c0.5,0,1,0.2,1.3,0.7l0.2,0.3c0.5,0.7,0.3,1.7-0.4,2.2s-1.6,0.4-2-0.3l-0.1-0.2
		l-0.2-0.3c-0.5-0.7-0.3-1.6,0.4-2.1C30.9,234.4,31.2,234.4,31.5,234.4z M278.3,235.1c0.3,0,0.6,0.1,0.8,0.3
		c0.7,0.5,0.9,1.4,0.4,2.1l-0.3,0.5c-0.5,0.7-1.4,0.9-2.1,0.4s-0.9-1.4-0.4-2.1l0.3-0.5C277.4,235.3,277.9,235.1,278.3,235.1z
		 M35.2,239.8c0.5,0,0.9,0.2,1.2,0.6l0.3,0.5c0.5,0.7,0.3,1.6-0.3,2.1c-0.7,0.5-1.6,0.3-2.1-0.3l-0.4-0.5c-0.5-0.7-0.3-1.6,0.4-2.1
		C34.6,239.9,34.9,239.8,35.2,239.8z M274.6,240.5c0.3,0,0.6,0.1,0.9,0.3c0.7,0.5,0.8,1.4,0.3,2.1l-0.4,0.5
		c-0.5,0.7-1.4,0.8-2.1,0.3s-0.8-1.4-0.3-2.1l0.3-0.5C273.6,240.7,274.1,240.5,274.6,240.5z M39.2,245.1c0.4,0,0.9,0.2,1.2,0.6
		l0.4,0.5c0.5,0.7,0.4,1.6-0.3,2.1s-1.6,0.4-2.1-0.3l-0.4-0.5c-0.5-0.6-0.4-1.6,0.2-2.1C38.6,245.2,38.9,245.1,39.2,245.1z
		 M270.5,245.8c0.3,0,0.7,0.1,0.9,0.3c0.6,0.5,0.8,1.5,0.2,2.1l-0.4,0.5c-0.5,0.6-1.5,0.8-2.1,0.2c-0.7-0.5-0.8-1.5-0.2-2.1l0.4-0.5
		C269.7,246,270.1,245.8,270.5,245.8z M43.5,250.2c0.4,0,0.8,0.2,1.1,0.5l0.4,0.4c0.5,0.6,0.5,1.6-0.1,2.1s-1.6,0.5-2.1-0.1
		l-0.4-0.5c-0.5-0.6-0.5-1.6,0.2-2.1C42.8,250.3,43.1,250.2,43.5,250.2z M266.3,250.9c0.4,0,0.7,0.1,1,0.4c0.6,0.5,0.7,1.5,0.1,2.1
		l-0.4,0.5c-0.6,0.6-1.5,0.7-2.1,0.1c-0.6-0.6-0.7-1.5-0.1-2.1l0.4-0.4C265.4,251.1,265.9,250.9,266.3,250.9z M47.9,255.1
		c0.4,0,0.8,0.2,1.1,0.5l0.4,0.4c0.6,0.6,0.6,1.6-0.1,2.1c-0.6,0.6-1.6,0.5-2.1-0.1l-0.4-0.4c-0.6-0.6-0.6-1.6,0.1-2.1
		C47.2,255.3,47.5,255.1,47.9,255.1z M261.8,255.8c0.4,0,0.7,0.1,1,0.4c0.6,0.6,0.6,1.5,0.1,2.1l-0.4,0.5c-0.6,0.6-1.5,0.6-2.1,0
		s-0.6-1.5,0-2.1l0.4-0.4C261,255.9,261.4,255.8,261.8,255.8z M52.6,259.8c0.4,0,0.7,0.1,1,0.4l0.3,0.3c0.6,0.6,0.7,1.6,0.1,2.2
		c-0.6,0.6-1.5,0.7-2.1,0.1l-0.2-0.1l-0.3-0.3c-0.6-0.6-0.6-1.5-0.1-2.1C51.8,260,52.2,259.8,52.6,259.8z M257.1,260.5
		c0.4,0,0.8,0.2,1.1,0.5c0.6,0.6,0.6,1.6,0,2.1l-0.4,0.4c-0.6,0.6-1.6,0.5-2.1-0.1c-0.6-0.6-0.5-1.6,0.1-2.1l0.4-0.4
		C256.4,260.6,256.7,260.5,257.1,260.5z M57.4,264.3c0.4,0,0.7,0.1,1,0.4l0.5,0.4c0.6,0.5,0.7,1.5,0.1,2.1c-0.5,0.6-1.5,0.7-2.1,0.1
		l-0.4-0.4c-0.6-0.5-0.7-1.5-0.1-2.1C56.6,264.5,57,264.3,57.4,264.3z M252.2,264.9c0.4,0,0.8,0.2,1.1,0.5c0.5,0.6,0.5,1.6-0.1,2.1
		l-0.5,0.4c-0.6,0.5-1.6,0.5-2.1-0.2c-0.5-0.6-0.5-1.6,0.2-2.1l0.4-0.4C251.5,265,251.9,264.9,252.2,264.9z M62.5,268.6
		c0.3,0,0.7,0.1,0.9,0.3l0.3,0.2c0.6,0.5,0.8,1.5,0.3,2.2s-1.4,0.8-2,0.3l-0.2-0.1l-0.3-0.2c-0.7-0.5-0.8-1.5-0.2-2.1
		C61.6,268.8,62.1,268.6,62.5,268.6z M247.1,269.2c0.4,0,0.9,0.2,1.2,0.6c0.5,0.7,0.4,1.6-0.2,2.1l-0.5,0.4
		c-0.7,0.5-1.6,0.4-2.1-0.3c-0.5-0.7-0.4-1.6,0.3-2.1l0.5-0.4C246.5,269.3,246.8,269.2,247.1,269.2z M67.8,272.7
		c0.3,0,0.6,0.1,0.9,0.3l0.5,0.4c0.7,0.5,0.8,1.4,0.3,2.1s-1.4,0.8-2.1,0.3l-0.5-0.4c-0.7-0.5-0.8-1.4-0.3-2.1
		C66.8,272.9,67.3,272.7,67.8,272.7z M241.9,273.2c0.5,0,0.9,0.2,1.2,0.6c0.5,0.7,0.3,1.6-0.3,2.1l-0.5,0.4
		c-0.7,0.5-1.6,0.3-2.1-0.3c-0.5-0.7-0.3-1.6,0.3-2.1l0.5-0.3C241.2,273.3,241.5,273.2,241.9,273.2z M73.2,276.5
		c0.3,0,0.6,0.1,0.8,0.3l0.5,0.3c0.7,0.5,0.9,1.4,0.4,2.1s-1.4,0.9-2.1,0.4l-0.5-0.3c-0.7-0.5-0.9-1.4-0.4-2.1
		C72.2,276.7,72.7,276.5,73.2,276.5z M236.4,277c0.5,0,1,0.2,1.3,0.7c0.5,0.7,0.3,1.6-0.4,2.1l-0.5,0.3c-0.7,0.5-1.6,0.3-2.1-0.4
		c-0.5-0.7-0.3-1.6,0.4-2.1l0.5-0.3C235.8,277,236.1,277,236.4,277z M78.8,280c0.3,0,0.5,0.1,0.8,0.2l0.5,0.3c0.7,0.4,1,1.3,0.5,2.1
		c-0.4,0.7-1.3,1-2.1,0.5l-0.5-0.3c-0.7-0.4-0.9-1.4-0.5-2.1C77.8,280.3,78.3,280,78.8,280z M230.8,280.5c0.5,0,1,0.3,1.3,0.7
		c0.4,0.7,0.2,1.6-0.5,2.1l-0.5,0.3c-0.7,0.4-1.6,0.2-2.1-0.5c-0.4-0.7-0.2-1.6,0.5-2.1l0.5-0.3
		C230.3,280.5,230.5,280.5,230.8,280.5z M84.5,283.3c0.2,0,0.5,0.1,0.7,0.2l0.5,0.3c0.7,0.4,1,1.3,0.6,2s-1.3,1-2,0.6l-0.5-0.3
		c-0.7-0.4-1-1.3-0.6-2C83.5,283.6,84,283.3,84.5,283.3z M225.1,283.7c0.5,0,1,0.3,1.3,0.8c0.4,0.7,0.1,1.6-0.6,2l-0.5,0.3
		c-0.7,0.4-1.6,0.1-2-0.6s-0.1-1.6,0.6-2l0.5-0.3C224.6,283.8,224.8,283.7,225.1,283.7z M90.4,286.4c0.2,0,0.5,0,0.7,0.2l0.5,0.3
		c0.8,0.4,1.1,1.3,0.7,2s-1.3,1.1-2,0.7l-0.6-0.3c-0.7-0.4-1.1-1.3-0.7-2C89.3,286.7,89.9,286.4,90.4,286.4z M219.2,286.7
		c0.6,0,1.1,0.3,1.4,0.9c0.4,0.7,0,1.6-0.7,2l-0.6,0.3c-0.7,0.4-1.7,0-2-0.7c-0.4-0.8,0-1.7,0.7-2l0.5-0.2
		C218.7,286.8,218.9,286.7,219.2,286.7z M96.5,289.2c0.2,0,0.4,0,0.6,0.1l0.5,0.2c0.8,0.3,1.1,1.2,0.8,2c-0.3,0.8-1.2,1.1-2,0.8
		l-0.6-0.2c-0.8-0.3-1.1-1.2-0.8-2C95.3,289.5,95.9,289.2,96.5,289.2z M212.9,289.6c0.6,0,1.2,0.3,1.5,0.9c0.3,0.8,0.1,1.6-0.7,1.9
		l-0.3,0.1c-0.8,0.3-1.8,0-2.1-0.7c-0.3-0.8-0.1-1.6,0.7-1.9l0.3-0.1C212.5,289.6,212.7,289.6,212.9,289.6z M102.6,291.7
		c0.2,0,0.4,0,0.5,0.1l0.6,0.2c0.8,0.3,1.2,1.2,0.9,1.9c-0.3,0.8-1.2,1.2-1.9,0.9l-0.6-0.2c-0.8-0.3-1.2-1.2-0.9-1.9
		C101.4,292,102,291.7,102.6,291.7z M207,291.9c0.6,0,1.2,0.4,1.4,1c0.3,0.8-0.1,1.6-0.9,1.9l-0.6,0.2c-0.8,0.3-1.6-0.1-1.9-0.9
		c-0.3-0.8,0.1-1.6,0.9-1.9l0.6-0.2C206.7,292,206.8,291.9,207,291.9z M108.9,293.9c0.1,0,0.3,0,0.4,0.1l0.6,0.2
		c0.8,0.3,1.2,1.1,1,1.9c-0.3,0.8-1.1,1.2-1.9,1l-0.4-0.1c-0.8-0.3-1.3-1.1-1.1-1.9C107.8,294.3,108.3,293.9,108.9,293.9z
		 M200.8,294.1c0.6,0,1.2,0.4,1.4,1c0.3,0.8-0.2,1.6-1,1.9l-0.6,0.2c-0.8,0.2-1.6-0.2-1.9-1c-0.3-0.8,0.2-1.6,1-1.9l0.6-0.2
		C200.4,294.2,200.6,294.1,200.8,294.1z M115.2,295.8c0.1,0,0.3,0,0.4,0.1l0.6,0.2c0.8,0.2,1.3,1,1.1,1.9c-0.2,0.8-1,1.3-1.9,1.1
		l-0.6-0.2c-0.8-0.2-1.3-1.1-1-1.9C114,296.3,114.6,295.8,115.2,295.8z M194.4,296c0.7,0,1.3,0.4,1.5,1.1c0.2,0.8-0.3,1.6-1.1,1.9
		l-0.6,0.2c-0.8,0.2-1.6-0.2-1.9-1c-0.2-0.8,0.2-1.6,1-1.9l0.6-0.2C194.1,296,194.3,296,194.4,296z M121.7,297.5c0.1,0,0.2,0,0.3,0
		l0.6,0.1c0.8,0.2,1.3,1,1.1,1.8c-0.2,0.8-1,1.3-1.8,1.1l-0.6-0.1c-0.8-0.2-1.3-1-1.1-1.8C120.3,297.9,121,297.5,121.7,297.5z
		 M188,297.6c0.7,0,1.3,0.5,1.5,1.2c0.2,0.8-0.3,1.6-1.1,1.8l-0.6,0.1c-0.8,0.2-1.6-0.3-1.8-1.1c-0.2-0.8,0.3-1.6,1.1-1.8l0.6-0.1
		C187.8,297.7,187.9,297.6,188,297.6z M128.1,298.8c0.1,0,0.2,0,0.3,0l0.6,0.1c0.8,0.1,1.4,0.9,1.2,1.7c-0.1,0.8-0.9,1.4-1.7,1.2
		l-0.4-0.1c-0.8-0.1-1.4-0.9-1.3-1.8C126.9,299.4,127.4,298.8,128.1,298.8z M181.5,299c0.7,0,1.4,0.5,1.5,1.2
		c0.1,0.8-0.4,1.6-1.2,1.7l-0.6,0.1c-0.8,0.2-1.6-0.4-1.7-1.2c-0.1-0.8,0.4-1.6,1.2-1.7l0.6-0.1C181.3,299,181.4,299,181.5,299z
		 M134.7,299.9c0.1,0,0.2,0,0.2,0l0.6,0.1c0.8,0.1,1.4,0.9,1.3,1.7c-0.1,0.8-0.9,1.4-1.7,1.3l-0.6-0.1c-0.8-0.1-1.4-0.9-1.3-1.7
		C133.3,300.4,134,299.9,134.7,299.9z M174.9,300c0.7,0,1.4,0.6,1.5,1.3c0.1,0.8-0.5,1.6-1.3,1.7l-0.6,0.1c-0.8,0.1-1.6-0.5-1.7-1.3
		c-0.1-0.8,0.5-1.6,1.3-1.7l0.6-0.1C174.8,300,174.9,300,174.9,300z M141.3,300.7c0.1,0,0.1,0,0.1,0l0.6,0.1
		c0.8,0.1,1.4,0.8,1.4,1.6c-0.1,0.8-0.8,1.4-1.6,1.4l-0.6-0.1c-0.8-0.1-1.4-0.8-1.4-1.6C139.8,301.2,140.5,300.7,141.3,300.7z
		 M168.4,300.7c0.8,0,1.4,0.6,1.5,1.4s-0.5,1.6-1.4,1.6l-0.6,0.1c-0.8,0.1-1.6-0.6-1.6-1.4c-0.1-0.8,0.5-1.6,1.4-1.6l0.6-0.1
		C168.3,300.7,168.3,300.7,168.4,300.7z M147.9,301.1L147.9,301.1h0.7c0.8,0,1.5,0.7,1.4,1.6c0,0.8-0.7,1.4-1.5,1.4c0,0,0,0-0.1,0
		h-0.6c-0.8,0-1.5-0.8-1.4-1.6C146.4,301.8,147.1,301.1,147.9,301.1z M161.7,301.2c0.8,0,1.5,0.6,1.5,1.4s-0.6,1.5-1.4,1.6h-0.6
		c-1,0-1.5-0.6-1.6-1.4c0-0.8,0.6-1.5,1.5-1.6H161.7L161.7,301.2z M154.5,301.3L154.5,301.3h0.6c0.8,0,1.5,0.7,1.5,1.5
		s-0.7,1.5-1.5,1.5h-0.6c-0.8,0-1.5-0.7-1.5-1.5S153.7,301.3,154.5,301.3z"/>
	<g>
		<path class="st1" d="M60.7,241.1l-0.5-0.5c-0.7-0.8-1.8-0.7-2.6,0c-0.4,0.3-1.4,1.2-1.9,1.7c-0.8,0.8-0.9,1.8-0.1,2.7l0.5,0.5
			l-0.6,0.5l-0.9-1c-1.7-1.9-1.8-4.4-0.2-5.9c1.1-1,2.9-1.4,4.4-0.6c-0.4-1.5,0.2-2.8,1.4-3.9L62,233c0.7-0.6,0.5-1.3,0-1.8
			c-0.1-0.2-0.3-0.3-0.3-0.3l0.6-0.6c0,0,0.3,0.2,0.6,0.5c1.4,1.5,1.5,4.2,0,5.6l-1.6,1.6c-0.7,0.7-0.8,1.8,0,2.6L60.7,241.1z
			 M67.4,237.2l-1-1.1l0.6-0.5l4.2,4.6l-0.6,0.5l-1-1.1L59.3,249l1,1.1l-0.6,0.5l-3.2-3.5L67.4,237.2z"/>
		<path class="st1" d="M57.7,225c-0.5-0.3-1-0.3-1.5,0c-0.2,0.1-5.1,3.7-5.5,3.9c-0.4,0.3-0.5,0.9-0.4,1.4l-0.7,0.5
			c-0.9-1.7-0.5-3.9,1.1-5.2c0.3-0.3,2.1-1.6,2.4-1.7c1.8-1.1,3.9-0.7,5.2,0.7L57.7,225z M59.1,225.6c0.9,1.7,0.6,3.8-1,5.2
			c-0.2,0.2-2,1.5-2.4,1.7c-1.7,1.1-4,0.8-5.3-0.6l0.6-0.5c0.5,0.3,1,0.4,1.5,0.1c0.3-0.2,5.3-3.8,5.5-3.9c0.5-0.4,0.6-1,0.5-1.5
			L59.1,225.6z"/>
		<path class="st1" d="M43.2,221c-0.2-0.7-0.2-1.5,0.1-2.2l-0.9,0.5l-0.4-0.7l2.4-1.4l0.5,0.8c-0.8,0.5-1.2,1.7-1,2.7L43.2,221z
			 M51.8,215.9c-0.6-0.6-1.5-0.7-2.2-0.4c-1.3,0.7-0.7,2.2-0.4,3.3c0.7,1.9,0.3,3.4-1.2,4.3c-1.4,0.8-3.2,0.5-4.3-1l0.6-0.4
			c0.5,0.5,1.4,0.7,1.9,0.4c1.2-0.7,0.8-2,0.3-3.3c-0.8-2.3-0.3-3.8,1.1-4.6c1.6-0.9,3.5-0.2,4.6,1.3L51.8,215.9z M53.1,216.6
			c0.4,0.9,0.4,1.8,0.1,2.6l0.9-0.5l0.5,0.8l-2.4,1.4l-0.5-0.8c0.8-0.6,1.2-1.8,0.8-3.1L53.1,216.6z"/>
		<path class="st1" d="M37.7,210.5c-0.6-1.9,0.3-3.9,2-4.8c0.4-0.2,1.5-0.7,1.5-0.7l1.9,3.9l-0.7,0.3l-0.7-1.5c0,0-2.1,1-2.4,1.2
			c-0.5,0.3-0.8,0.8-0.8,1.3L37.7,210.5z M47.9,207c0.6,1.9-0.2,3.9-2,4.9c-0.3,0.2-2.5,1.2-2.8,1.3c-1.8,0.7-3.8,0-4.9-1.6l0.7-0.3
			c0.4,0.4,1,0.4,1.5,0.2l6-2.9c0.5-0.3,0.8-0.8,0.8-1.3L47.9,207z M46.7,206.2c-0.8-1-2-1.5-3-1.1l-0.4-0.8
			c1.5-0.7,3.1,0.1,4.1,1.5L46.7,206.2z"/>
		<path class="st1" d="M33,196.6l0.3,0.8l-0.7,0.2l-1.1-2.9l0.7-0.2l0.4,1.2l5.9-0.1l-1,0.9L33,196.6z M43.8,195.6l-8.2,7.8l0.4,1.1
			l-0.7,0.2l-1.7-4.5l0.7-0.3l0.3,0.8l5.6-5.2L43.8,195.6z"/>
		<path class="st1" d="M28,190.7c0.2,0.8-0.2,1.6-0.9,1.8c-0.7,0.2-1.5-0.2-1.7-1s0.2-1.6,0.9-1.8C27,189.5,27.8,189.9,28,190.7z
			 M41,189.8l-0.7,0.2l-0.4-1.2l-8.6,2.4l0.3,1.2l-0.7,0.2l-1.1-3.9l9.3-2.6l-0.3-1.1l0.7-0.2L41,189.8z"/>
		<path class="st1" d="M39.1,182.9l-0.7,0.2l-0.3-1.3l-13.7,3l0.3,1.3l-0.8,0.2l-0.9-3.9l14.5-3.1l-0.2-1.1L38,178L39.1,182.9z"/>
		<path class="st1" d="M37.6,175.9l-0.7,0.1l-0.2-1.3l-13.8,2.1l0.2,1.3l-0.8,0.1l-0.6-4l14.6-2.3l-0.2-1.1l0.7-0.1L37.6,175.9z"/>
		<path class="st1" d="M25.6,164.5c0.1-2,1.6-3.5,3.6-3.7c0.4-0.1,1.6-0.1,1.6-0.1l0.3,4.3l-0.8,0.1l-0.1-1.7c0,0-2.3,0.2-2.7,0.2
			c-0.6,0.1-1,0.5-1.2,0.9H25.6z M36.5,164.9c-0.1,2-1.6,3.5-3.6,3.9c-0.4,0-2.8,0.2-3.1,0.2c-2,0-3.6-1.3-4-3.3l0.8-0.1
			c0.3,0.5,0.8,0.8,1.3,0.8l6.6-0.5c0.6,0,1-0.5,1.2-1L36.5,164.9z M35.6,163.7c-0.4-1.2-1.3-2.1-2.4-2.1l-0.1-0.9
			c1.6-0.1,2.8,1.2,3.2,2.9L35.6,163.7z"/>
		<path class="st1" d="M36.1,147.7l-0.4,4.7l-0.8-0.1l0.1-1.5l-13.9-1.1l-0.1,1.5l-0.8-0.1l0.4-4.7L36.1,147.7z M21.2,139.4l3.6,0.3
			l-0.1,1.1l-2.8-0.2l-0.3,4.3l-0.8-0.1L21.2,139.4z M28,143.6l-1.9-0.1l0.1-1.1l4.7,0.4l-0.1,1.1l-1.9-0.1l-0.1,1.6l-0.8-0.1
			L28,143.6z M35.4,145.8l0.3-4.5l-3.1-0.2l0.1-1.1l3.9,0.3l-0.4,5.6L35.4,145.8z"/>
		<path class="st1" d="M37.4,133.1c-0.1-0.9-0.7-1.6-1.4-1.7c-1.4-0.3-2,1.2-2.4,2.2c-0.7,1.9-2,2.8-3.7,2.5
			c-1.6-0.3-2.7-1.7-2.6-3.5l0.7,0.1c0.1,0.8,0.5,1.4,1.2,1.6c1.4,0.3,1.9-1,2.4-2.3c0.9-2.3,2.2-3,3.9-2.7c1.8,0.3,2.8,2.1,2.6,4
			L37.4,133.1z M27.5,131.3c0.3-0.7,0.8-1.3,1.5-1.6l-1-0.2l0.1-0.8l2.7,0.5l-0.2,0.9c-0.9-0.1-2.1,0.5-2.5,1.4L27.5,131.3z
			 M37.9,134.5c-0.3,0.9-0.9,1.6-1.7,2l1.1,0.2l-0.2,0.9l-2.8-0.5l0.2-0.9c1,0.1,2.1-0.6,2.6-1.8L37.9,134.5z"/>
		<path class="st1" d="M30.7,121.2c0.1,0.5,0.4,1,0.9,1.2c0.8,0.3,5.8,1.6,6.5,1.8c0.6,0.1,1.1-0.1,1.5-0.5l0.7,0.2
			c-0.7,1.7-2.6,2.9-4.6,2.4c-0.5-0.1-2.2-0.6-2.8-0.8c-2-0.6-3.1-2.5-2.9-4.5L30.7,121.2z M30.3,119.7c0.3-0.7,0.9-1.2,1.7-1.5
			l-1-0.3l0.2-0.8l3,0.8l-0.2,0.9c-1.1-0.3-2.4,0.2-2.9,1.1L30.3,119.7z M38.2,118.9c1.8,0.5,2.5,2.1,2.4,3.6l-0.7-0.2
			c0-1.2-0.8-2.3-1.9-2.6L38.2,118.9z"/>
		<path class="st1" d="M34.1,110.8c-0.2,1,0.2,1.7,0.6,2.2l-0.6,0.5c-0.5-0.5-1-1.6-0.7-3L34.1,110.8z M33.7,109.3
			c0.8-1.8,2.6-2.6,4.3-2.1c0.2,0.1,6.1,2.3,6.1,2.3l0.5-1.2l0.7,0.3L44,112l-2-0.5l-6-2.2c-0.6-0.2-1.1,0-1.4,0.3L33.7,109.3z
			 M43.5,113.3c0,0.3-0.1,0.6-0.2,0.8c-0.7,1.7-2.5,3.1-4.5,2.3c-2.1-0.8-2.2-2.9-1.4-5l0.1-0.2l0.7,0.3v0.1c-0.3,0.8,0.1,1.7,0.8,2
			l2.1,0.8c0.7,0.3,1.6-0.2,1.9-1c0-0.1,0.1-0.1,0.1-0.2L43.5,113.3z"/>
		<path class="st1" d="M49.8,109.1l0.6-1.2l-12.7-6.2l-0.6,1.2l-0.6-0.3l1.8-3.6l13.3,6.5l0.5-1l0.6,0.3l-2.3,4.7L49.8,109.1z
			 M47.7,102.2c0,0,0.1-0.1,0.1-0.2c0.4-0.7,0.1-1.6-0.6-2l-5.8-2.8c-0.7-0.3-1.6,0-2,0.8v0.1l-0.6-0.3c0,0,0-0.1,0.1-0.2
			c1-2,3.3-2.9,5.4-2.1c0.2,0.1,2.1,1,2.4,1.2c2,1.1,2.8,3.5,1.8,5.6c0,0.1-0.1,0.2-0.1,0.2L47.7,102.2z"/>
		<path class="st1" d="M53.5,93.1c-1.3,1.6-3.4,1.9-5.2,1c-0.3-0.2-2.4-1.4-2.6-1.6c-1.6-1.2-2.1-3.2-1.3-5l0.7,0.4
			c-0.1,0.6,0.2,1.1,0.6,1.4l5.6,3.5c0.5,0.3,1.1,0.2,1.5-0.1L53.5,93.1z M45,86.4c1.3-1.6,3.4-1.9,5.1-0.9c0.4,0.2,1.4,0.8,1.4,0.8
			L49.2,90l-0.7-0.4l0.9-1.5c0,0-2-1.2-2.3-1.4c-0.5-0.3-1.1-0.2-1.5,0L45,86.4z M53.5,91.6c0.4-1.2,0.2-2.5-0.7-3.1l0.4-0.7
			c1.4,0.8,1.6,2.7,0.9,4.2L53.5,91.6z"/>
		<path class="st1" d="M56.3,78.1l-0.8-0.6l3.9-4.7l0.8,0.6L56.3,78.1z"/>
		<path class="st1" d="M73.5,67l1.1-1l0.5,0.6l-4.6,4.1L70,70.2l1.1-1l-9.3-10.4l-1.1,1l-0.5-0.6l3.5-3.2L73.5,67z M69.7,60.3
			l0.5-0.5c0.8-0.7,0.7-1.8,0.1-2.6c-0.3-0.4-1.2-1.4-1.7-1.9c-0.8-0.8-1.8-0.9-2.7-0.1l-0.5,0.5l-0.5-0.6l1-0.9
			c1.9-1.7,4.4-1.8,5.9-0.1c1,1.1,1.4,2.9,0.6,4.4c1.5-0.4,2.8,0.2,3.9,1.4l1.6,1.8c0.6,0.7,1.3,0.5,1.8,0c0.2-0.1,0.3-0.3,0.3-0.3
			l0.6,0.6c0,0-0.2,0.3-0.6,0.6c-1.6,1.4-4.2,1.5-5.6,0L72.8,61c-0.7-0.7-1.8-0.8-2.6-0.1L69.7,60.3z"/>
		<path class="st1" d="M85.1,58.8c-1.7,0.9-3.8,0.6-5.2-1c-0.2-0.2-1.5-2-1.7-2.4c-1.1-1.7-0.8-4,0.6-5.3l0.5,0.6
			c-0.3,0.5-0.4,1-0.1,1.5c0.2,0.3,3.8,5.3,3.9,5.5c0.4,0.5,0.9,0.6,1.5,0.5L85.1,58.8z M85.7,57.4c0.3-0.5,0.3-1,0-1.5
			c-0.1-0.2-3.7-5.1-3.9-5.5c-0.3-0.4-0.9-0.5-1.4-0.4l-0.5-0.6c1.7-0.9,3.9-0.5,5.2,1.1c0.3,0.3,1.6,2.1,1.7,2.4
			c1.1,1.8,0.7,3.9-0.7,5.2L85.7,57.4z"/>
		<path class="st1" d="M94.9,51.6c0.6-0.6,0.7-1.5,0.4-2.1c-0.7-1.3-2.2-0.8-3.3-0.4c-1.9,0.7-3.4,0.3-4.3-1.2
			c-0.8-1.4-0.4-3.2,1-4.3l0.4,0.6c-0.5,0.5-0.7,1.4-0.4,1.9c0.7,1.2,2,0.8,3.3,0.3c2.3-0.8,3.7-0.3,4.6,1.1
			c0.9,1.6,0.2,3.5-1.3,4.6L94.9,51.6z M89.9,43c0.7-0.2,1.5-0.2,2.2,0.1l-0.5-0.9l0.7-0.4l1.4,2.4l-0.8,0.4c-0.5-0.8-1.7-1.2-2.7-1
			L89.9,43z M94.2,52.9c-0.9,0.4-1.8,0.4-2.6,0.1l0.5,0.9l-0.8,0.4l-1.4-2.4l0.8-0.5c0.6,0.8,1.8,1.2,3.1,0.8L94.2,52.9z"/>
		<path class="st1" d="M103.8,47.7c-1.9,0.6-3.9-0.2-4.9-2c-0.2-0.3-1.2-2.5-1.3-2.8c-0.7-1.8,0-3.8,1.6-4.9l0.3,0.7
			c-0.4,0.4-0.4,1-0.2,1.5l2.8,6c0.3,0.5,0.8,0.8,1.3,0.8L103.8,47.7z M100.3,37.5c1.9-0.6,3.8,0.3,4.8,2.1c0.2,0.4,0.7,1.5,0.7,1.5
			l-3.9,1.9l-0.3-0.7l1.5-0.7c0,0-1-2.1-1.2-2.4c-0.3-0.5-0.8-0.8-1.3-0.8L100.3,37.5z M104.6,46.5c1-0.8,1.5-2,1.1-3l0.8-0.4
			c0.7,1.5-0.2,3.1-1.5,4L104.6,46.5z"/>
		<path class="st1" d="M115.2,43.6l-7.8-8.3l-1.1,0.4l-0.2-0.7l4.5-1.6l0.2,0.7l-0.8,0.3l5.2,5.6L115.2,43.6z M114.2,32.9l-0.8,0.3
			l-0.2-0.7l2.9-1.1l0.2,0.7l-1.2,0.4l0.1,5.9l-0.9-1L114.2,32.9z"/>
		<path class="st1" d="M121.1,40.8l-0.2-0.7l1.2-0.3l-2.4-8.6l-1.3,0.3l-0.2-0.7l3.9-1.1l2.6,9.3l1.1-0.3l0.2,0.7L121.1,40.8z
			 M120.3,27.8c-0.8,0.2-1.6-0.2-1.8-0.9c-0.2-0.7,0.3-1.5,1-1.7c0.8-0.2,1.6,0.2,1.8,0.9C121.5,26.8,121,27.6,120.3,27.8z"/>
		<path class="st1" d="M128,39l-0.2-0.7l1.3-0.3l-2.9-13.7l-1.3,0.3l-0.2-0.8l3.9-0.8l3.1,14.5l1.1-0.2L133,38L128,39z"/>
		<path class="st1" d="M134.9,37.6l-0.1-0.7l1.3-0.2L134,22.8l-1.3,0.2l-0.1-0.8l4-0.6l2.2,14.6l1.1-0.2l0.1,0.7L134.9,37.6z"/>
		<path class="st1" d="M146,36.4c-2-0.1-3.5-1.6-3.8-3.7c-0.1-0.4-0.2-2.8-0.2-3.1c0-2,1.4-3.6,3.3-4l0.1,0.8
			c-0.5,0.3-0.8,0.8-0.8,1.3l0.5,6.6c0,0.6,0.5,1,1,1.2L146,36.4z M146.4,25.6c2,0.1,3.5,1.6,3.7,3.7c0,0.4,0.1,1.6,0.1,1.6
			l-4.3,0.3l-0.1-0.8l1.7-0.1c0,0-0.1-2.3-0.2-2.7c-0.1-0.6-0.4-1-0.9-1.2V25.6z M147.2,35.5c1.2-0.4,2.2-1.3,2.1-2.4l0.9-0.1
			c0.1,1.6-1.3,2.8-2.9,3.2L147.2,35.5z"/>
		<path class="st1" d="M163.2,36.1l-4.7-0.4l0.1-0.8l1.5,0.1l1.1-13.9l-1.5-0.1l0.1-0.8l4.7,0.4L163.2,36.1z M165.1,35.5l4.5,0.4
			l0.3-3.1l1.1,0.1l-0.3,3.9l-5.6-0.5V35.5z M167.3,28l0.2-1.9l1.1,0.1l-0.4,4.7l-1.1-0.1l0.2-1.9l-1.6-0.1l0.1-0.8L167.3,28z
			 M171.6,21.2l-0.3,3.6l-1.1-0.1l0.2-2.8l-4.3-0.3l0.1-0.8L171.6,21.2z"/>
		<path class="st1" d="M176.4,38c-0.9-0.3-1.6-0.9-2-1.7l-0.2,1.1l-0.9-0.2l0.5-2.8l0.9,0.2c-0.1,1,0.6,2.1,1.8,2.6L176.4,38z
			 M177.8,37.5c0.9-0.1,1.6-0.7,1.7-1.4c0.3-1.4-1.2-2-2.2-2.4c-1.9-0.7-2.8-2-2.4-3.7c0.3-1.6,1.8-2.7,3.6-2.6l-0.1,0.7
			c-0.8,0.1-1.4,0.5-1.6,1.2c-0.3,1.4,1,1.9,2.3,2.4c2.3,0.9,3,2.2,2.7,3.9c-0.3,1.8-2.2,2.8-4,2.6V37.5z M179.7,27.7
			c0.7,0.3,1.3,0.8,1.6,1.5l0.2-1l0.8,0.2l-0.5,2.7l-0.9-0.2c0.1-0.9-0.5-2.1-1.3-2.5L179.7,27.7z"/>
		<path class="st1" d="M189.6,30.8c-0.5,0.1-1,0.4-1.2,0.9c-0.3,0.8-1.6,5.8-1.8,6.5c-0.1,0.6,0.1,1.1,0.5,1.5l-0.2,0.7
			c-1.7-0.8-2.9-2.6-2.4-4.6c0.1-0.5,0.6-2.2,0.8-2.8c0.6-2,2.6-3.1,4.5-2.9L189.6,30.8z M191.9,38.4c-0.5,1.8-2.2,2.5-3.7,2.4
			l0.2-0.7c1.2,0,2.3-0.8,2.6-1.9L191.9,38.4z M191.1,30.4c0.7,0.3,1.2,0.9,1.5,1.7l0.3-1l0.8,0.2l-0.8,3L192,34
			c0.3-1.1-0.2-2.4-1.1-2.9L191.1,30.4z"/>
		<path class="st1" d="M197.5,43.6c-0.3,0-0.6-0.1-0.8-0.2c-1.7-0.7-3.1-2.5-2.3-4.5c0.8-2.1,2.9-2.2,5-1.4l0.2,0.1l-0.3,0.7h-0.1
			c-0.8-0.3-1.7,0.1-2,0.8l-0.8,2.1c-0.3,0.7,0.2,1.6,1,1.9c0.1,0,0.1,0.1,0.2,0.1L197.5,43.6z M200,34.2c-1-0.2-1.7,0.2-2.2,0.6
			l-0.5-0.6c0.5-0.5,1.6-1,3-0.7L200,34.2z M201.5,33.9c1.7,0.8,2.6,2.6,2,4.3c-0.1,0.2-2.3,6.1-2.3,6.1l1.2,0.5l-0.3,0.7l-3.5-1.3
			l0.5-2l2.3-6c0.2-0.6,0-1.1-0.3-1.4L201.5,33.9z"/>
		<path class="st1" d="M201.6,50l1.2,0.6L209,38l-1.2-0.6l0.3-0.6l3.6,1.8l-6.6,13.3l1,0.5l-0.3,0.6l-4.7-2.3L201.6,50z M208.6,47.9
			c0,0,0.1,0.1,0.2,0.1c0.7,0.4,1.6,0.1,2-0.6l2.8-5.7c0.3-0.7,0-1.6-0.8-2h-0.1L213,39c0,0,0.1,0,0.2,0.1c2,1,2.9,3.3,2,5.4
			c-0.1,0.2-1,2.1-1.2,2.4c-1.1,2-3.5,2.8-5.6,1.7c-0.1,0-0.2-0.1-0.2-0.1L208.6,47.9z"/>
		<path class="st1" d="M217.7,53.7c-1.6-1.3-1.9-3.4-1-5.2c0.2-0.3,1.4-2.4,1.6-2.6c1.2-1.6,3.2-2.1,5-1.3l-0.4,0.7
			c-0.6-0.1-1.1,0.2-1.4,0.6l-3.5,5.6c-0.3,0.5-0.2,1.1,0.1,1.5L217.7,53.7z M219.2,53.8c1.2,0.4,2.5,0.2,3.1-0.7l0.7,0.5
			c-0.8,1.4-2.7,1.6-4.2,0.9L219.2,53.8z M224.4,45.3c1.6,1.3,1.9,3.4,0.9,5.1c-0.2,0.4-0.9,1.4-0.9,1.4l-3.7-2.3l0.4-0.7l1.4,0.9
			c0,0,1.2-1.9,1.4-2.3c0.3-0.5,0.2-1.1,0-1.5L224.4,45.3z"/>
		<path class="st1" d="M232.7,56.6l0.6-0.8l4.7,3.9l-0.6,0.8L232.7,56.6z"/>
		<path class="st1" d="M243.6,73.9l1,1.1l-0.6,0.5l-4.1-4.6l0.6-0.5l1,1.1l10.4-9.3l-1-1.1l0.6-0.5l3.2,3.5L243.6,73.9z M250.4,70
			l0.5,0.5c0.7,0.8,1.8,0.7,2.6,0.1c0.4-0.3,1.4-1.2,1.9-1.7c0.8-0.8,0.9-1.8,0.1-2.7l-0.5-0.5l0.6-0.5l0.9,1
			c1.7,1.9,1.8,4.4,0.1,5.9c-1.1,1-2.9,1.4-4.4,0.6c0.3,1.5-0.2,2.8-1.4,3.9l-1.8,1.6c-0.7,0.6-0.5,1.3,0,1.8
			c0.1,0.2,0.3,0.3,0.3,0.3l-0.6,0.6c0,0-0.3-0.2-0.6-0.5c-1.4-1.6-1.5-4.2,0-5.6l1.6-1.5c0.7-0.7,0.8-1.8,0.1-2.6L250.4,70z"/>
		<path class="st1" d="M251.9,85.6c-0.9-1.7-0.6-3.8,1-5.2c0.2-0.2,2-1.5,2.4-1.7c1.7-1.1,4-0.8,5.3,0.6l-0.6,0.5
			c-0.5-0.3-1-0.4-1.5-0.1c-0.3,0.2-5.3,3.7-5.5,3.9c-0.5,0.4-0.6,0.9-0.5,1.5L251.9,85.6z M253.3,86.2c0.5,0.3,1,0.3,1.5,0
			c0.2-0.1,5.2-3.6,5.5-3.9c0.4-0.3,0.5-0.9,0.4-1.4l0.7-0.5c0.9,1.7,0.5,3.9-1.2,5.2c-0.3,0.3-2.1,1.5-2.4,1.7
			c-1.8,1.1-3.9,0.7-5.2-0.7L253.3,86.2z"/>
		<path class="st1" d="M257.7,94.6c-0.4-0.9-0.4-1.8-0.1-2.6l-0.9,0.5l-0.4-0.8l2.4-1.4l0.5,0.8c-0.8,0.6-1.2,1.8-0.8,3.1
			L257.7,94.6z M259,95.3c0.6,0.6,1.5,0.7,2.2,0.4c1.3-0.7,0.8-2.2,0.4-3.3c-0.7-1.9-0.3-3.4,1.2-4.3c1.4-0.8,3.2-0.4,4.3,1
			l-0.6,0.4c-0.5-0.5-1.4-0.7-1.9-0.4c-1.2,0.7-0.8,2-0.3,3.3c0.8,2.3,0.3,3.8-1.2,4.6c-1.6,0.9-3.5,0.2-4.6-1.3L259,95.3z
			 M267.6,90.3c0.2,0.7,0.2,1.5-0.1,2.2l0.9-0.5l0.4,0.7l-2.4,1.4l-0.4-0.8c0.8-0.5,1.3-1.7,1-2.7L267.6,90.3z"/>
		<path class="st1" d="M262.8,104.2c-0.6-1.9,0.2-3.9,2-4.9c0.3-0.2,2.5-1.2,2.8-1.3c1.8-0.7,3.8,0,4.9,1.6l-0.7,0.3
			c-0.4-0.4-1-0.4-1.5-0.2l-6,2.8c-0.5,0.3-0.8,0.8-0.8,1.3L262.8,104.2z M264.1,105c0.8,1,2,1.5,3,1.1l0.4,0.8
			c-1.5,0.7-3.1-0.2-4-1.5L264.1,105z M273.1,100.8c0.6,2-0.3,3.8-2.1,4.8c-0.4,0.2-1.5,0.7-1.5,0.7l-1.8-3.9l0.7-0.3l0.7,1.5
			c0,0,2.1-1,2.4-1.1c0.5-0.3,0.8-0.8,0.8-1.3L273.1,100.8z"/>
		<path class="st1" d="M266.9,115.7l8.3-7.8l-0.4-1.1l0.7-0.2l1.6,4.5l-0.7,0.2l-0.3-0.8l-5.6,5.1L266.9,115.7z M277.7,114.8
			l-0.3-0.9l0.7-0.2l1,2.9l-0.7,0.2l-0.4-1.2h-5.9l1-0.9L277.7,114.8z"/>
		<path class="st1" d="M269.7,121.5l0.7-0.2l0.3,1.2l8.6-2.3L279,119l0.7-0.2l1.1,3.9l-9.3,2.5l0.3,1.1l-0.7,0.2L269.7,121.5z
			 M282.7,120.7c-0.2-0.8,0.2-1.6,1-1.8c0.7-0.2,1.5,0.3,1.7,1c0.2,0.8-0.2,1.6-1,1.8C283.7,122,282.9,121.5,282.7,120.7z"/>
		<path class="st1" d="M271.5,128.4l0.7-0.1l0.3,1.3l13.7-2.8l-0.3-1.3l0.8-0.2l0.8,3.9l-14.5,3l0.2,1.1l-0.7,0.1L271.5,128.4z"/>
		<path class="st1" d="M272.9,135.4l0.7-0.1l0.2,1.3l13.9-2l-0.2-1.3l0.8-0.1l0.6,4l-14.7,2.1l0.2,1.1l-0.7,0.1L272.9,135.4z"/>
		<path class="st1" d="M274,146.4c0.1-2,1.6-3.5,3.7-3.8c0.4,0,2.8-0.2,3.1-0.2c2,0,3.6,1.4,4,3.3l-0.8,0.1
			c-0.3-0.5-0.8-0.8-1.3-0.8l-6.6,0.5c-0.6,0-1,0.5-1.2,0.9H274z M274.9,147.6c0.3,1.2,1.3,2.2,2.4,2.1l0.1,0.9
			c-1.6,0.1-2.8-1.3-3.2-2.9L274.9,147.6z M284.8,146.9c-0.1,2-1.7,3.5-3.7,3.7c-0.4,0-1.6,0.1-1.6,0.1l-0.3-4.3h0.8l0.1,1.7
			c0,0,2.3-0.1,2.7-0.2c0.6-0.1,1-0.4,1.2-0.9L284.8,146.9z"/>
		<path class="st1" d="M274.8,165.6l-0.4,4.5l3.1,0.3l-0.1,1.1l-3.9-0.3l0.5-5.6H274.8z M274.2,163.8l0.4-4.7l0.8,0.1l-0.1,1.5
			l13.9,1.2l0.1-1.5l0.8,0.1l-0.4,4.7L274.2,163.8z M282.3,167.9l1.9,0.2l-0.1,1.1l-4.7-0.4l0.1-1.1l1.9,0.2l0.1-1.6l0.8,0.1
			L282.3,167.9z M289.1,172.2l-3.6-0.3l0.1-1.1l2.8,0.2l0.4-4.2l0.8,0.1L289.1,172.2z"/>
		<path class="st1" d="M272.8,178.3c0.1,0.9,0.7,1.6,1.4,1.7c1.4,0.3,2-1.1,2.5-2.2c0.7-1.9,2-2.8,3.7-2.4c1.6,0.3,2.7,1.8,2.6,3.6
			l-0.7-0.1c0-0.8-0.5-1.4-1.2-1.6c-1.4-0.3-1.9,1-2.4,2.3c-0.9,2.3-2.2,3-3.9,2.7c-1.8-0.3-2.8-2.2-2.6-4H272.8z M272.3,176.8
			c0.3-0.9,0.9-1.6,1.7-2l-1.1-0.2l0.2-0.9l2.8,0.5l-0.2,0.9c-1-0.1-2.1,0.6-2.7,1.8L272.3,176.8z M282.6,180.1
			c-0.3,0.7-0.8,1.3-1.5,1.6l1,0.2l-0.2,0.8l-2.7-0.5l0.2-0.9c0.9,0.1,2.1-0.5,2.5-1.3L282.6,180.1z"/>
		<path class="st1" d="M271.8,192.4c-1.8-0.5-2.5-2.2-2.3-3.7l0.7,0.2c0,1.2,0.8,2.3,1.9,2.6L271.8,192.4z M279.4,190.2
			c-0.1-0.5-0.4-1-0.9-1.2c-0.8-0.3-5.8-1.7-6.5-1.8c-0.6-0.1-1.1,0.1-1.5,0.5l-0.7-0.2c0.8-1.7,2.6-2.9,4.6-2.4
			c0.5,0.1,2.2,0.6,2.8,0.8c2,0.6,3.1,2.6,2.8,4.5L279.4,190.2z M279.8,191.6c-0.3,0.7-0.9,1.2-1.7,1.5l1,0.3l-0.2,0.8l-2.9-0.8
			l0.2-0.8c1.1,0.3,2.4-0.2,2.9-1.1L279.8,191.6z"/>
		<path class="st1" d="M276.3,202.1c-0.9,1.7-2.6,2.6-4.4,2c-0.2-0.1-6.1-2.3-6.1-2.3l-0.5,1.2l-0.7-0.3l1.3-3.5l2,0.5l6,2.3
			c0.6,0.2,1.1,0.1,1.4-0.3L276.3,202.1z M266.5,198c0-0.3,0.1-0.6,0.2-0.8c0.7-1.7,2.5-3.1,4.6-2.3s2.2,2.9,1.4,5.1l-0.1,0.2
			l-0.7-0.3v-0.1c0.3-0.8-0.1-1.7-0.8-2L269,197c-0.7-0.3-1.6,0.2-1.9,0.9c0,0.1-0.1,0.1-0.1,0.2L266.5,198z M275.9,200.6
			c0.2-1-0.2-1.7-0.5-2.2l0.6-0.5c0.5,0.6,1,1.6,0.7,3L275.9,200.6z"/>
		<path class="st1" d="M260.1,202.1l-0.6,1.2l12.6,6.3l0.6-1.2l0.6,0.3l-1.8,3.6l-13.2-6.6l-0.5,1l-0.6-0.3l2.3-4.6L260.1,202.1z
			 M262.2,209.1c0,0-0.1,0.1-0.1,0.2c-0.4,0.7-0.1,1.6,0.6,2l5.7,2.9c0.7,0.3,1.6,0,2-0.8v-0.1l0.6,0.3c0,0,0,0.1-0.1,0.2
			c-1,2-3.3,2.9-5.4,2c-0.2-0.1-2.1-1-2.4-1.2c-2-1.1-2.8-3.5-1.7-5.6c0-0.1,0.1-0.2,0.1-0.2L262.2,209.1z"/>
		<path class="st1" d="M256.3,219.6c-0.4,1.2-0.2,2.5,0.7,3.1l-0.5,0.7c-1.4-0.9-1.5-2.7-0.9-4.2L256.3,219.6z M256.3,218.1
			c1.3-1.5,3.4-1.9,5.2-0.9c0.3,0.2,2.4,1.5,2.6,1.6c1.6,1.2,2.1,3.2,1.3,5l-0.7-0.4c0.1-0.6-0.2-1.1-0.6-1.4l-5.6-3.5
			c-0.5-0.3-1.1-0.2-1.5,0.1L256.3,218.1z M264.7,224.9c-1.3,1.6-3.4,1.8-5.1,0.8c-0.4-0.2-1.4-0.9-1.4-0.9l2.3-3.7l0.7,0.4
			l-0.9,1.4c0,0,1.9,1.2,2.3,1.4c0.5,0.3,1.1,0.2,1.5,0L264.7,224.9z"/>
		<path class="st1" d="M253.4,233.1l0.8,0.6l-3.9,4.7l-0.8-0.6L253.4,233.1z"/>
		<path class="st1" d="M239.9,250.8l-0.5,0.5c-0.8,0.7-0.7,1.8-0.1,2.6c0.3,0.4,1.2,1.4,1.7,1.9c0.8,0.8,1.8,0.9,2.7,0.1l0.5-0.5
			l0.5,0.6l-1,0.9c-1.9,1.7-4.4,1.8-5.9,0.1c-1-1.1-1.4-2.9-0.6-4.4c-1.5,0.3-2.8-0.3-3.9-1.4l-1.6-1.8c-0.6-0.7-1.3-0.5-1.8,0
			c-0.2,0.1-0.3,0.3-0.3,0.3l-0.6-0.6c0,0,0.2-0.3,0.6-0.6c1.6-1.4,4.2-1.5,5.6,0l1.5,1.6c0.7,0.7,1.8,0.8,2.6,0.1L239.9,250.8z
			 M236.1,244l-1.1,1l-0.5-0.6l4.6-4.1l0.5,0.6l-1.1,1l9.2,10.4l1.1-1l0.5,0.6l-3.6,3.1L236.1,244z"/>
		<path class="st1" d="M223.8,253.5c-0.3,0.5-0.3,1,0,1.5c0.1,0.2,3.6,5.2,3.9,5.5c0.3,0.4,0.9,0.5,1.4,0.4l0.5,0.7
			c-1.7,0.9-3.9,0.4-5.2-1.2c-0.3-0.3-1.5-2.1-1.7-2.4c-1.1-1.8-0.7-3.9,0.7-5.2L223.8,253.5z M224.4,252.1c1.7-0.9,3.8-0.6,5.2,1.1
			c0.2,0.2,1.5,2,1.7,2.4c1.1,1.8,0.8,4-0.7,5.3l-0.5-0.7c0.3-0.4,0.4-1,0.1-1.5c-0.2-0.3-3.7-5.3-3.9-5.5c-0.4-0.5-0.9-0.6-1.5-0.5
			L224.4,252.1z"/>
		<path class="st1" d="M214.5,259.3c-0.6,0.6-0.8,1.5-0.4,2.1c0.7,1.3,2.2,0.8,3.3,0.4c1.9-0.7,3.4-0.3,4.3,1.2
			c0.8,1.4,0.4,3.2-1,4.3l-0.4-0.6c0.5-0.5,0.7-1.3,0.4-1.9c-0.7-1.3-2-0.8-3.3-0.3c-2.3,0.8-3.7,0.3-4.6-1.2
			c-0.9-1.6-0.2-3.5,1.4-4.6L214.5,259.3z M215.3,258c0.9-0.4,1.8-0.4,2.6,0l-0.5-0.9l0.8-0.4l1.4,2.4l-0.8,0.5
			c-0.6-0.8-1.8-1.2-3.1-0.8L215.3,258z M219.5,268c-0.7,0.2-1.5,0.2-2.2-0.1l0.5,0.9l-0.7,0.4l-1.4-2.4l0.8-0.4
			c0.5,0.8,1.7,1.3,2.7,1L219.5,268z"/>
		<path class="st1" d="M204.8,264.3c-1,0.7-1.6,2-1.1,3l-0.8,0.4c-0.7-1.5,0.2-3.1,1.6-4L204.8,264.3z M209,273.3
			c-2,0.6-3.9-0.3-4.8-2.1c-0.2-0.4-0.7-1.5-0.7-1.5l3.9-1.8l0.3,0.7l-1.5,0.7c0,0,1,2.1,1.1,2.4c0.3,0.5,0.8,0.8,1.3,0.8L209,273.3
			z M205.7,263.1c1.9-0.6,3.9,0.3,4.9,2.1c0.2,0.3,1.2,2.5,1.3,2.8c0.7,1.8,0,3.8-1.7,4.9l-0.3-0.7c0.4-0.4,0.4-1,0.2-1.5l-2.8-6
			c-0.2-0.5-0.8-0.8-1.3-0.8L205.7,263.1z"/>
		<path class="st1" d="M195.1,277.8l0.9-0.3l0.2,0.7l-2.9,1l-0.2-0.7l1.2-0.4v-5.9l0.9,1L195.1,277.8z M194.2,267.1l7.7,8.3l1.1-0.4
			l0.2,0.7l-4.5,1.6l-0.2-0.7l0.8-0.3l-5.1-5.7V267.1z"/>
		<path class="st1" d="M188.4,269.8l0.2,0.7l-1.3,0.3l2.3,8.6l1.2-0.3l0.2,0.7l-3.9,1l-2.5-9.3l-1.1,0.3l-0.2-0.7L188.4,269.8z
			 M189.1,282.8c0.8-0.2,1.6,0.2,1.7,1c0.2,0.7-0.3,1.5-1,1.7c-0.8,0.2-1.6-0.2-1.8-1C187.9,283.8,188.4,283,189.1,282.8z"/>
		<path class="st1" d="M181.4,271.6l0.1,0.7l-1.3,0.3l2.8,13.7l1.3-0.3l0.2,0.8l-3.9,0.8l-3-14.5l-1.1,0.2l-0.1-0.7L181.4,271.6z"/>
		<path class="st1" d="M174.5,273l0.1,0.7l-1.3,0.2l2,13.9l1.3-0.2l0.1,0.8l-4,0.6l-2.1-14.7l-1.1,0.2l-0.1-0.7L174.5,273z"/>
		<path class="st1" d="M162.8,284.8c-2-0.2-3.5-1.7-3.7-3.7c0-0.4-0.1-1.6-0.1-1.6l4.3-0.3l0.1,0.8l-1.7,0.1c0,0,0.1,2.3,0.2,2.7
			c0.1,0.6,0.4,1,0.9,1.2V284.8z M162.2,274.9c-1.2,0.3-2.2,1.3-2.1,2.4l-0.9,0.1c-0.1-1.6,1.3-2.8,2.9-3.2L162.2,274.9z M163.4,274
			c2,0.2,3.5,1.6,3.8,3.7c0,0.4,0.2,2.8,0.2,3.1c0,2-1.4,3.6-3.3,4L164,284c0.5-0.3,0.8-0.8,0.8-1.3l-0.4-6.6c0-0.6-0.5-1-0.9-1.2
			L163.4,274z"/>
		<path class="st1" d="M137.6,289l0.3-3.6l1.1,0.1l-0.3,2.8l4.3,0.4l-0.1,0.8L137.6,289z M144.2,274.8l-4.5-0.4l-0.3,3.1l-1.1-0.1
			l0.4-3.9l5.6,0.5L144.2,274.8z M141.9,282.2l-0.2,1.9l-1.1-0.1l0.4-4.7l1.1,0.1l-0.2,1.9l1.6,0.1l-0.1,0.8L141.9,282.2z
			 M146.1,274.2l4.7,0.4l-0.1,0.8l-1.5-0.1l-1.2,13.9l1.5,0.1l-0.1,0.8l-4.7-0.4L146.1,274.2z"/>
		<path class="st1" d="M129.7,282.5c-0.7-0.3-1.2-0.8-1.6-1.5l-0.2,1l-0.8-0.2l0.5-2.7l0.9,0.2c-0.1,0.9,0.5,2.1,1.3,2.5
			L129.7,282.5z M131.6,272.7c-0.9,0.1-1.6,0.7-1.7,1.4c-0.3,1.4,1.1,2,2.2,2.5c1.9,0.7,2.7,2,2.4,3.7c-0.3,1.6-1.8,2.7-3.6,2.5
			l0.1-0.7c0.8,0,1.4-0.5,1.6-1.2c0.3-1.4-1-1.9-2.3-2.4c-2.3-0.9-3-2.3-2.7-3.9c0.4-1.8,2.2-2.8,4-2.6V272.7z M133,272.2
			c0.9,0.3,1.6,0.9,2,1.7l0.2-1.1l0.9,0.2l-0.5,2.7l-0.9-0.2c0.1-1-0.6-2.1-1.8-2.7L133,272.2z"/>
		<path class="st1" d="M118.2,279.6c-0.7-0.4-1.2-0.9-1.5-1.7l-0.3,1l-0.8-0.2l0.8-2.9l0.9,0.2c-0.3,1.1,0.2,2.4,1,2.9L118.2,279.6z
			 M117.5,271.7c0.5-1.8,2.2-2.5,3.7-2.3l-0.2,0.7c-1.2,0-2.3,0.8-2.6,1.9L117.5,271.7z M119.6,279.3c0.5-0.1,1-0.4,1.2-0.9
			c0.3-0.8,1.7-5.8,1.9-6.5c0.1-0.6-0.1-1.1-0.5-1.5l0.2-0.7c1.7,0.8,2.9,2.6,2.4,4.7c-0.1,0.5-0.6,2.2-0.8,2.8
			c-0.6,2-2.6,3.1-4.5,2.8L119.6,279.3z"/>
		<path class="st1" d="M107.8,276.1c-1.7-0.9-2.5-2.6-2-4.4c0.1-0.2,2.3-6.1,2.3-6.1l-1.2-0.5l0.3-0.7l3.5,1.4l-0.5,2l-2.3,6
			c-0.2,0.6-0.1,1.1,0.3,1.4L107.8,276.1z M109.3,275.7c1,0.2,1.7-0.2,2.2-0.5l0.5,0.7c-0.6,0.5-1.6,0.9-3,0.6L109.3,275.7z
			 M111.9,266.3c0.3,0,0.6,0.1,0.8,0.2c1.7,0.7,3.1,2.5,2.3,4.6c-0.8,2.1-2.9,2.2-5.1,1.4l-0.2-0.1l0.3-0.7h0.1
			c0.8,0.3,1.7-0.1,2-0.8l0.8-2.1c0.3-0.7-0.2-1.6-0.9-1.9c-0.1,0-0.1-0.1-0.2-0.1L111.9,266.3z"/>
		<path class="st1" d="M100.9,262c0,0-0.1-0.1-0.2-0.1c-0.7-0.4-1.6-0.1-2,0.6l-2.9,5.7c-0.4,0.7,0,1.6,0.8,2h0.1l-0.3,0.6
			c0,0-0.1,0-0.2-0.1c-2-1-2.9-3.3-2-5.4c0.1-0.2,1-2.1,1.2-2.4c1.1-2,3.5-2.7,5.6-1.7c0.1,0,0.2,0.1,0.2,0.1L100.9,262z M107.9,260
			l-1.2-0.6l-6.4,12.6l1.2,0.6l-0.3,0.6l-3.6-1.8l6.7-13.2l-1-0.5l0.3-0.6l4.6,2.3L107.9,260z"/>
		<path class="st1" d="M85,264.5c-1.6-1.3-1.8-3.4-0.8-5.2c0.2-0.4,0.9-1.4,0.9-1.4l3.6,2.3l-0.4,0.7l-1.4-0.9c0,0-1.3,1.9-1.4,2.3
			c-0.3,0.5-0.2,1.1,0,1.5L85,264.5z M91.9,256.1c1.6,1.3,1.9,3.4,0.9,5.2c-0.2,0.3-1.5,2.4-1.6,2.6c-1.2,1.6-3.2,2-5,1.2l0.4-0.7
			c0.6,0.1,1.1-0.2,1.4-0.6l3.5-5.6c0.3-0.5,0.2-1.1-0.1-1.5L91.9,256.1z M90.4,256c-1.2-0.4-2.5-0.2-3.1,0.7l-0.7-0.5
			c0.9-1.4,2.7-1.5,4.2-0.9L90.4,256z"/>
		<path class="st1" d="M76.9,253.1l-0.6,0.8l-4.7-3.9l0.6-0.8L76.9,253.1z"/>
	</g>
	<path class="st1" d="M155.2,49.7c58.2,0,105.5,47.3,105.5,105.5s-47.3,105.5-105.5,105.5S49.7,213.4,49.7,155.2
		C49.7,97,97,49.7,155.2,49.7z M155.2,259.1c57.3,0,104-46.6,104-104c0-57.3-46.6-104-104-104c-57.3,0-104,46.6-104,104
		C51.2,212.5,97.8,259.1,155.2,259.1z"/>
	<path class="st1" d="M154.6,56.4c0.8,0,1.5,0.7,1.5,1.5s-0.7,1.6-1.5,1.5H154l0,0c-0.8,0-1.5-0.7-1.5-1.5s0.7-1.5,1.5-1.5H154.6z
		 M160.6,56.5C160.7,56.5,160.7,56.5,160.6,56.5h0.7c0.8,0,1.5,0.8,1.4,1.6c0,0.8-0.8,1.5-1.6,1.4h-0.6c-0.8,0-1.5-0.8-1.4-1.6
		C159.2,57.1,159.8,56.5,160.6,56.5z M148,56.6c0.8,0,1.4,0.6,1.5,1.4c0.1,0.8-0.6,1.6-1.4,1.6h-0.6c-0.8,0.1-1.6-0.6-1.6-1.4
		c-0.1-0.8,0.6-1.6,1.4-1.6h0.6C147.9,56.6,147.9,56.6,148,56.6z M167.2,57.1c0.1,0,0.1,0,0.2,0l0.6,0.1c0.8,0.1,1.4,0.9,1.3,1.7
		c-0.1,0.8-0.9,1.4-1.7,1.3l-0.6-0.1c-0.8-0.1-1.4-0.8-1.3-1.7C165.8,57.7,166.5,57.1,167.2,57.1z M141.4,57.3
		c0.7,0,1.4,0.6,1.5,1.3c0.1,0.8-0.5,1.6-1.3,1.7l-0.6,0.1c-0.8,0.1-1.6-0.4-1.7-1.3c-0.1-0.8,0.4-1.6,1.3-1.7l0.6-0.1
		C141.3,57.3,141.3,57.3,141.4,57.3z M173.8,58.1c0.1,0,0.2,0,0.3,0l0.6,0.1c0.8,0.2,1.3,1,1.2,1.8c-0.2,0.8-1,1.4-1.8,1.2l-0.6-0.1
		c-0.8-0.2-1.3-1-1.2-1.8C172.4,58.6,173.1,58.1,173.8,58.1z M134.8,58.5c0.7,0,1.4,0.5,1.5,1.2c0.2,0.8-0.3,1.6-1.1,1.8l-0.6,0.1
		c-0.8,0.2-1.6-0.3-1.8-1.1s0.3-1.6,1.1-1.8l0.5-0.1C134.6,58.5,134.7,58.5,134.8,58.5z M180.2,59.6c0.1,0,0.3,0,0.4,0.1l0.6,0.2
		c0.8,0.2,1.3,1,1.1,1.9c-0.2,0.8-1,1.3-1.9,1.1l-0.6-0.2c-0.8-0.2-1.3-1-1.1-1.9C179,60.1,179.6,59.6,180.2,59.6z M128.4,60.1
		c0.7,0,1.3,0.4,1.5,1.1c0.2,0.8-0.2,1.6-1,1.9l-0.6,0.2c-0.8,0.2-1.6-0.2-1.9-1c-0.2-0.8,0.2-1.6,1-1.9l0.6-0.2
		C128.2,60.1,128.3,60.1,128.4,60.1z M186.6,61.5c0.2,0,0.3,0,0.5,0.1l0.6,0.2c0.8,0.3,1.2,1.1,0.9,1.9c-0.3,0.8-1.1,1.2-1.9,0.9
		l-0.6-0.2c-0.8-0.3-1.2-1.1-0.9-1.9C185.4,61.9,185.9,61.5,186.6,61.5z M122.1,62.1c0.6,0,1.2,0.4,1.4,1c0.3,0.8-0.1,1.6-0.9,1.9
		l-0.5,0.2c-0.8,0.3-1.6-0.1-1.9-0.9c-0.3-0.8,0.1-1.6,0.9-1.9l0.6-0.2C121.8,62.1,122,62.1,122.1,62.1z M192.8,63.9
		c0.2,0,0.4,0,0.6,0.1l0.5,0.2c0.8,0.3,1.1,1.2,0.8,2s-1.2,1.1-2,0.8l-0.6-0.2c-0.8-0.3-1.1-1.2-0.8-2
		C191.6,64.2,192.2,63.9,192.8,63.9z M116,64.6c0.6,0,1.1,0.3,1.4,0.9c0.3,0.8,0,1.7-0.8,2l-0.5,0.2c-0.8,0.3-1.7,0-2-0.8
		s0-1.7,0.8-2l0.6-0.3C115.6,64.6,115.8,64.6,116,64.6z M198.8,66.7c0.2,0,0.5,0.1,0.7,0.2l0.5,0.3c0.7,0.4,1,1.3,0.7,2
		c-0.4,0.7-1.3,1-2,0.7l-0.5-0.3c-0.7-0.4-1-1.3-0.7-2C197.7,67,198.3,66.7,198.8,66.7z M110,67.4c0.5,0,1.1,0.3,1.3,0.8
		c0.4,0.7,0.1,1.6-0.6,2l-0.5,0.3c-0.7,0.4-1.6,0.1-2-0.6s-0.1-1.6,0.6-2l0.5-0.3C109.6,67.5,109.8,67.4,110,67.4z M204.6,69.9
		c0.3,0,0.5,0.1,0.8,0.2l0.5,0.3c0.7,0.4,1,1.3,0.5,2.1c-0.4,0.7-1.4,1-2.1,0.5l-0.5-0.3c-0.7-0.4-1-1.3-0.5-2.1
		C203.6,70.1,204.1,69.9,204.6,69.9z M104.3,70.7c0.5,0,1,0.3,1.3,0.7c0.4,0.7,0.2,1.6-0.5,2.1l-0.5,0.3c-0.7,0.4-1.6,0.2-2.1-0.5
		c-0.4-0.7-0.2-1.6,0.5-2.1l0.5-0.3C103.7,70.8,104,70.7,104.3,70.7z M210.2,73.4c0.3,0,0.6,0.1,0.9,0.3l0.5,0.3
		c0.7,0.5,0.9,1.4,0.4,2.1s-1.4,0.9-2.1,0.4l-0.5-0.4c-0.7-0.5-0.9-1.4-0.4-2.1C209.3,73.7,209.8,73.4,210.2,73.4z M98.8,74.4
		c0.5,0,0.9,0.2,1.2,0.6c0.5,0.7,0.3,1.6-0.4,2.1l-0.5,0.3c-0.7,0.5-1.6,0.3-2.1-0.3c-0.5-0.7-0.3-1.6,0.3-2.1l0.5-0.4
		C98.1,74.5,98.4,74.4,98.8,74.4z M215.7,77.4c0.3,0,0.6,0.1,0.8,0.3l0.3,0.2c0.7,0.5,0.9,1.5,0.4,2.2s-1.3,0.9-2,0.4l-0.3-0.2
		c-0.7-0.5-0.9-1.5-0.4-2.2C214.8,77.6,215.2,77.4,215.7,77.4z M93.4,78.5c0.4,0,0.8,0.2,1.1,0.5c0.5,0.6,0.6,1.5-0.1,2l-0.2,0.2
		c-0.6,0.5-1.7,0.5-2.2-0.1s-0.6-1.5,0.1-2l0.2-0.2C92.6,78.7,93,78.5,93.4,78.5z M220.6,81.7c0.4,0,0.7,0.1,1,0.4l0.4,0.4
		c0.6,0.6,0.7,1.5,0.1,2.1c-0.6,0.6-1.5,0.7-2.1,0.1l-0.5-0.4c-0.6-0.6-0.7-1.5-0.1-2.1C219.8,81.8,220.2,81.7,220.6,81.7z
		 M88.5,82.9c0.4,0,0.8,0.1,1,0.4c0.6,0.6,0.7,1.4,0.1,2l-0.2,0.2c-0.6,0.6-1.7,0.7-2.2,0c-0.6-0.6-0.7-1.4-0.1-2l0.2-0.2
		C87.6,83.1,88,82.9,88.5,82.9z M225.4,86.3c0.4,0,0.8,0.2,1.1,0.5l0.4,0.4c0.6,0.6,0.6,1.6,0,2.1c-0.6,0.6-1.6,0.6-2.1,0l-0.4-0.4
		c-0.6-0.6-0.6-1.6,0-2.1C224.6,86.4,225,86.3,225.4,86.3z M83.8,87.5c0.4,0,0.7,0.1,1,0.4c0.6,0.6,0.7,1.5,0.1,2.1l-0.4,0.5
		c-0.6,0.6-1.5,0.6-2.1,0.1c-0.6-0.6-0.7-1.5-0.1-2.1l0.4-0.4C83,87.6,83.4,87.5,83.8,87.5z M229.8,91.2c0.4,0,0.9,0.2,1.2,0.5
		l0.4,0.5c0.5,0.6,0.4,1.6-0.2,2.1c-0.6,0.5-1.6,0.4-2.1-0.2l-0.4-0.4c-0.5-0.6-0.5-1.6,0.2-2.1C229.1,91.3,229.4,91.2,229.8,91.2z
		 M79.5,92.5c0.3,0,0.7,0.1,0.9,0.3c0.7,0.5,0.8,1.5,0.3,2.1l-0.4,0.5c-0.5,0.6-1.5,0.7-2.1,0.2s-0.7-1.5-0.2-2.1l0.4-0.4
		C78.6,92.7,79,92.5,79.5,92.5z M233.9,96.4c0.5,0,0.9,0.2,1.2,0.6l0.4,0.5c0.5,0.7,0.3,1.6-0.3,2.1c-0.7,0.5-1.6,0.3-2.1-0.3
		l-0.4-0.5c-0.5-0.7-0.3-1.6,0.3-2.1C233.2,96.5,233.6,96.4,233.9,96.4z M75.5,97.8c0.3,0,0.6,0.1,0.9,0.3c0.7,0.5,0.8,1.4,0.4,2.1
		l-0.3,0.5c-0.5,0.7-1.4,0.8-2.1,0.4c-0.7-0.5-0.9-1.4-0.4-2.1l0.4-0.5C74.6,98,75,97.8,75.5,97.8z M237.6,101.9
		c0.5,0,1,0.3,1.3,0.7l0.3,0.5c0.4,0.7,0.2,1.6-0.5,2.1c-0.7,0.4-1.6,0.2-2.1-0.5l-0.3-0.5c-0.4-0.7-0.2-1.6,0.5-2.1
		C237,102,237.3,101.9,237.6,101.9z M71.9,103.3c0.3,0,0.5,0.1,0.8,0.2c0.7,0.4,0.9,1.4,0.5,2.1l-0.3,0.5c-0.4,0.7-1.4,1-2.1,0.5
		c-0.7-0.4-1-1.3-0.5-2.1l0.3-0.5C70.9,103.6,71.4,103.3,71.9,103.3z M240.9,107.7c0.5,0,1.1,0.3,1.3,0.8l0.3,0.5
		c0.4,0.7,0.1,1.6-0.6,2c-0.7,0.4-1.6,0.1-2-0.6l-0.3-0.5c-0.4-0.7-0.1-1.6,0.6-2C240.4,107.7,240.7,107.7,240.9,107.7z M68.6,109.1
		c0.2,0,0.5,0.1,0.7,0.2c0.7,0.4,1,1.3,0.6,2l-0.3,0.5c-0.4,0.7-1.3,1-2,0.7c-0.7-0.4-1-1.3-0.7-2l0.3-0.6
		C67.6,109.4,68.1,109.1,68.6,109.1z M243.8,113.6c0.6,0,1.1,0.3,1.4,0.9l0.3,0.6c0.3,0.8,0,1.7-0.8,2s-1.7,0-2-0.8l-0.2-0.5
		c-0.3-0.8,0-1.7,0.8-2C243.4,113.6,243.6,113.6,243.8,113.6z M65.8,115.1c0.2,0,0.4,0,0.6,0.1c0.8,0.3,1.1,1.2,0.8,2l-0.2,0.6
		c-0.3,0.8-1.2,1.1-2,0.8c-0.8-0.3-1.1-1.2-0.8-2l0.2-0.6C64.7,115.5,65.2,115.1,65.8,115.1z M246.4,119.7c0.6,0,1.2,0.4,1.4,1
		l0.2,0.6c0.3,0.8-0.1,1.6-0.9,1.9c-0.8,0.3-1.6-0.1-1.9-0.9l-0.2-0.5c-0.3-0.8,0.1-1.6,0.9-1.9C246,119.7,246.2,119.7,246.4,119.7z
		 M63.4,121.3c0.2,0,0.3,0,0.5,0.1c0.8,0.3,1.2,1.1,0.9,1.9l-0.2,0.5c-0.3,0.8-1.1,1.2-1.9,0.9c-0.8-0.3-1.2-1.1-0.9-1.9l0.2-0.6
		C62.2,121.7,62.8,121.3,63.4,121.3z M248.6,126.1c0.6,0,1.1,0.3,1.3,1l0.1,0.3c0.2,0.8-0.2,1.8-1,2s-1.6-0.1-1.8-0.9l-0.1-0.3
		c-0.2-0.8,0.2-1.8,1-2C248.3,126.1,248.4,126.1,248.6,126.1z M61.4,127.6c0.1,0,0.3,0,0.4,0.1c0.8,0.2,1.3,1,1.1,1.9l-0.2,0.6
		c-0.2,0.8-1,1.3-1.9,1.1c-0.8-0.2-1.3-1-1.1-1.8l0.2-0.6C60.1,128.1,60.7,127.6,61.4,127.6z M250.1,132.4c0.7,0,1.3,0.5,1.5,1.2
		l0.1,0.6c0.2,0.8-0.3,1.6-1.2,1.8c-0.8,0.2-1.6-0.3-1.8-1.2l-0.1-0.6c-0.2-0.8,0.3-1.6,1.1-1.8C249.9,132.4,250,132.4,250.1,132.4z
		 M59.8,134.1c0.1,0,0.2,0,0.3,0c0.8,0.2,1.3,1,1.1,1.8l-0.1,0.6c-0.2,0.8-1,1.3-1.8,1.2c-0.8-0.2-1.3-0.9-1.2-1.8l0.1-0.6
		C58.5,134.5,59.2,134.1,59.8,134.1z M251.4,139.1c0.7,0,1.3,0.4,1.4,1.1v0.3c0.1,0.8-0.4,1.7-1.2,1.9c-0.8,0.1-1.6-0.3-1.7-1.1V141
		c-0.1-0.8,0.4-1.7,1.2-1.9C251.2,139.1,251.3,139.1,251.4,139.1z M58.7,140.6c0.1,0,0.1,0,0.2,0c0.8,0.1,1.4,0.9,1.3,1.7l-0.1,0.6
		c-0.1,0.8-0.9,1.4-1.7,1.3c-0.8-0.1-1.4-0.9-1.3-1.7l0.1-0.6C57.3,141.2,58,140.6,58.7,140.6z M252.1,145.5c0.8,0,1.4,0.6,1.5,1.4
		l0.1,0.6c0.1,0.8-0.6,1.6-1.4,1.6c-0.8,0.1-1.6-0.6-1.6-1.4v-0.6C250.6,146.3,251.2,145.5,252.1,145.5
		C252,145.5,252.1,145.5,252.1,145.5z M58.1,147.2L58.1,147.2c0.9,0.1,1.6,0.8,1.5,1.6v0.6c0,0.8-0.8,1.5-1.6,1.4
		c-0.8,0-1.5-0.8-1.4-1.6v-0.6C56.6,147.8,57.3,147.2,58.1,147.2z M252.4,152.1c0.8,0,1.5,0.7,1.5,1.5v0.6c0,0.2,0,0.3-0.1,0.5
		c0.1,0.2,0.1,0.3,0.1,0.5v0.6c0,0.8-0.8,1.5-1.5,1.5c-0.8,0-1.5-0.7-1.5-1.5v-0.6c0-0.2,0-0.3,0.1-0.5c-0.1-0.2-0.1-0.3-0.1-0.5
		v-0.6C250.9,152.8,251.6,152.1,252.4,152.1L252.4,152.1z M57.9,153.8c0.8,0,1.5,0.7,1.5,1.5v0.6c0,0.8-0.7,1.5-1.5,1.5l0,0
		c-0.8,0-1.5-0.7-1.5-1.5v-0.6C56.4,154.5,57,153.8,57.9,153.8z M252.2,160.3h0.1c0.8,0.1,1.5,0.8,1.4,1.6v0.6
		c-0.1,0.8-0.8,1.5-1.6,1.4s-1.5-0.8-1.4-1.6v-0.6C250.8,160.9,251.4,160.3,252.2,160.3z M58.1,160.4c0.8,0,1.5,0.6,1.5,1.4v0.6
		c0.1,0.8-0.6,1.6-1.4,1.6c-0.8,0.1-1.6-0.6-1.6-1.4V162C56.6,161.2,57.2,160.5,58.1,160.4C58,160.4,58.1,160.4,58.1,160.4z
		 M251.6,166.9c0.1,0,0.1,0,0.2,0c0.8,0.1,1.4,0.9,1.3,1.7l-0.1,0.6c-0.1,0.8-0.9,1.4-1.7,1.2c-0.8-0.1-1.4-0.9-1.2-1.7l0.1-0.6
		C250.2,167.4,250.8,166.9,251.6,166.9z M58.8,167c0.8,0,1.4,0.6,1.5,1.3l0.1,0.6c0.1,0.8-0.5,1.6-1.3,1.7c-0.8,0.1-1.6-0.4-1.7-1.3
		l-0.1-0.6c-0.1-0.8,0.5-1.6,1.3-1.7C58.7,167,58.7,167,58.8,167z M250.4,173.4c0.1,0,0.2,0,0.3,0c0.8,0.2,1.3,1,1.2,1.8l-0.1,0.6
		c-0.2,0.8-1,1.3-1.8,1.2c-0.8-0.2-1.3-1-1.2-1.8l0.1-0.6C249.1,173.9,249.7,173.4,250.4,173.4z M59.9,173.6c0.7,0,1.3,0.5,1.5,1.2
		l0.1,0.6c0.2,0.8-0.4,1.6-1.2,1.8s-1.6-0.4-1.8-1.2l-0.1-0.6c-0.2-0.8,0.3-1.6,1.2-1.8C59.7,173.6,59.8,173.6,59.9,173.6z
		 M248.9,179.8c0.1,0,0.3,0,0.4,0.1c0.8,0.2,1.3,1,1.1,1.8l-0.2,0.5c-0.2,0.8-1.1,1.3-1.9,1.1c-0.8-0.2-1.3-1-1-1.8l0.2-0.6
		C247.6,180.3,248.2,179.8,248.9,179.8z M61.5,180c0.7,0,1.3,0.4,1.5,1.1l0.2,0.6c0.2,0.8-0.2,1.6-1,1.9c-0.8,0.2-1.6-0.2-1.9-1
		l-0.2-0.6c-0.2-0.8,0.3-1.6,1.1-1.8C61.2,180,61.3,180,61.5,180z M246.9,186.2c0.2,0,0.3,0,0.5,0.1c0.8,0.3,1.2,1.1,0.9,1.9
		l-0.2,0.6c-0.3,0.8-1.2,1.2-1.9,0.9c-0.8-0.3-1.2-1.2-0.9-1.9l0.2-0.5C245.7,186.5,246.3,186.2,246.9,186.2z M63.5,186.3
		c0.6,0,1.2,0.4,1.4,1l0.2,0.6c0.3,0.8-0.1,1.6-0.9,1.9c-0.8,0.3-1.6-0.1-1.9-0.9l-0.2-0.6c-0.3-0.8,0.1-1.6,0.9-1.9
		C63.2,186.3,63.3,186.3,63.5,186.3z M244.5,192.3c0.2,0,0.4,0,0.6,0.1c0.8,0.3,1.1,1.2,0.8,2l-0.3,0.6c-0.3,0.8-1.3,1.1-2,0.7
		c-0.8-0.4-1.1-1.2-0.7-2l0.2-0.5C243.3,192.7,243.9,192.3,244.5,192.3z M65.9,192.5c0.6,0,1.1,0.3,1.4,0.9l0.2,0.5
		c0.3,0.8,0,1.6-0.8,2c-0.8,0.3-1.7,0-2-0.8l-0.3-0.6c-0.3-0.8,0-1.6,0.8-2C65.5,192.5,65.7,192.5,65.9,192.5z M241.6,198.3
		c0.2,0,0.5,0.1,0.7,0.2c0.7,0.4,1,1.3,0.7,2l-0.3,0.6c-0.4,0.7-1.3,1-2,0.6s-1-1.3-0.6-2l0.3-0.5
		C240.5,198.6,241.1,198.3,241.6,198.3z M68.8,198.4c0.6,0,1.1,0.3,1.4,0.8l0.3,0.5c0.4,0.7,0.1,1.6-0.6,2s-1.6,0.1-2-0.6l-0.3-0.6
		c-0.4-0.7-0.1-1.6,0.7-2C68.3,198.5,68.5,198.4,68.8,198.4z M238.4,204.1c0.3,0,0.5,0.1,0.8,0.2c0.7,0.4,0.9,1.4,0.5,2.1l-0.3,0.5
		c-0.4,0.7-1.4,0.9-2.1,0.5c-0.7-0.4-0.9-1.4-0.5-2.1l0.3-0.5C237.4,204.4,237.9,204.1,238.4,204.1z M72,204.2c0.5,0,1,0.3,1.3,0.7
		l0.3,0.5c0.4,0.7,0.2,1.6-0.5,2.1c-0.7,0.4-1.6,0.2-2.1-0.5l-0.3-0.5c-0.4-0.7-0.2-1.6,0.5-2.1C71.5,204.3,71.8,204.2,72,204.2z
		 M234.7,209.7c0.3,0,0.6,0.1,0.9,0.3c0.7,0.5,0.9,1.4,0.4,2.1l-0.4,0.5c-0.5,0.7-1.4,0.8-2.1,0.3c-0.7-0.5-0.8-1.4-0.3-2.1l0.3-0.5
		C233.8,209.9,234.2,209.7,234.7,209.7z M75.7,209.7c0.5,0,1,0.2,1.2,0.7l0.3,0.5c0.5,0.7,0.3,1.6-0.3,2.1c-0.7,0.5-1.6,0.3-2.1-0.3
		l-0.4-0.5c-0.5-0.7-0.3-1.6,0.4-2.1C75.1,209.8,75.4,209.7,75.7,209.7z M230.7,214.9c0.3,0,0.7,0.1,1,0.3c0.6,0.5,0.7,1.5,0.2,2.1
		l-0.4,0.5c-0.5,0.6-1.5,0.7-2.1,0.2s-0.7-1.5-0.2-2.1l0.4-0.5C229.8,215.1,230.3,214.9,230.7,214.9z M79.7,215
		c0.4,0,0.9,0.2,1.2,0.6l0.4,0.5c0.5,0.6,0.4,1.6-0.2,2.1s-1.6,0.4-2.1-0.2l-0.4-0.5c-0.5-0.6-0.4-1.6,0.2-2.1
		C79,215.1,79.3,215,79.7,215z M226.4,219.9c0.4,0,0.7,0.1,1,0.4c0.6,0.6,0.6,1.5,0.1,2.1l-0.4,0.4c-0.6,0.6-1.5,0.6-2.1,0.1
		c-0.6-0.6-0.6-1.5-0.1-2.1l0.4-0.4C225.6,220.1,226,219.9,226.4,219.9z M84,220c0.4,0,0.8,0.2,1.1,0.5l0.4,0.4
		c0.6,0.6,0.5,1.6-0.1,2.1c-0.6,0.6-1.6,0.6-2.1-0.1l-0.4-0.5c-0.6-0.6-0.5-1.6,0.1-2.1C83.3,220.1,83.6,220,84,220z M221.7,224.6
		c0.4,0,0.8,0.2,1.1,0.5c0.6,0.6,0.5,1.6-0.1,2.1l-0.4,0.4c-0.6,0.6-1.6,0.6-2.1-0.1c-0.6-0.6-0.5-1.6,0.1-2.1l0.4-0.4
		C220.9,224.8,221.3,224.6,221.7,224.6z M88.7,224.7c0.4,0,0.7,0.1,1,0.4l0.4,0.4c0.6,0.6,0.6,1.5,0.1,2.1c-0.6,0.6-1.5,0.6-2.1,0.1
		l-0.4-0.4c-0.6-0.6-0.6-1.5-0.1-2.1C87.9,224.9,88.3,224.7,88.7,224.7z M216.7,229c0.4,0,0.9,0.2,1.2,0.6c0.5,0.6,0.4,1.6-0.2,2.1
		l-0.5,0.4c-0.6,0.5-1.6,0.4-2.1-0.2c-0.5-0.6-0.4-1.6,0.2-2.1l0.5-0.4C216,229.1,216.4,229,216.7,229z M93.7,229.1
		c0.3,0,0.7,0.1,0.9,0.3l0.5,0.4c0.6,0.5,0.7,1.5,0.2,2.1c-0.5,0.7-1.5,0.7-2.1,0.2l-0.5-0.4c-0.7-0.5-0.8-1.5-0.2-2.1
		C92.8,229.3,93.3,229.1,93.7,229.1z M211.4,233c0.5,0,0.9,0.2,1.2,0.6c0.5,0.7,0.3,1.6-0.4,2.1l-0.5,0.3c-0.7,0.5-1.6,0.3-2.1-0.4
		s-0.3-1.6,0.4-2.1l0.5-0.3C210.8,233.1,211.1,233,211.4,233z M99,233.1c0.3,0,0.6,0.1,0.9,0.3l0.5,0.3c0.7,0.5,0.9,1.4,0.4,2.1
		c-0.5,0.7-1.4,0.8-2.1,0.4l-0.5-0.4c-0.7-0.5-0.8-1.4-0.4-2.1C98,233.3,98.5,233.1,99,233.1z M205.9,236.7c0.5,0,1,0.3,1.3,0.7
		c0.4,0.7,0.2,1.6-0.5,2.1l-0.5,0.3c-0.7,0.4-1.6,0.2-2.1-0.5c-0.4-0.7-0.2-1.6,0.5-2.1l0.5-0.3
		C205.4,236.7,205.6,236.7,205.9,236.7z M104.6,236.8c0.2,0,0.5,0.1,0.7,0.2l0.3,0.2c0.7,0.4,1.1,1.4,0.6,2.1
		c-0.4,0.7-1.2,1-1.9,0.6l-0.3-0.2c-0.7-0.4-1.1-1.4-0.6-2.1C103.6,237.1,104.1,236.8,104.6,236.8z M200.1,239.9
		c0.5,0,1.1,0.3,1.3,0.8c0.4,0.7,0.1,1.6-0.6,2l-0.6,0.3c-0.7,0.4-1.7,0.1-2-0.7c-0.4-0.7-0.1-1.6,0.7-2l0.5-0.3
		C199.7,240,199.9,239.9,200.1,239.9z M110.3,240c0.2,0,0.5,0.1,0.7,0.2l0.5,0.3c0.7,0.4,1,1.3,0.7,2c-0.4,0.7-1.3,1-2,0.7l-0.5-0.3
		c-0.7-0.4-1-1.3-0.6-2C109.2,240.3,109.7,240,110.3,240z M194.2,242.8c0.6,0,1.1,0.3,1.4,0.9c0.3,0.8,0,1.7-0.8,2l-0.6,0.2
		c-0.8,0.3-1.6,0-2-0.8c-0.3-0.8,0-1.7,0.8-2l0.5-0.2C193.8,242.8,194,242.8,194.2,242.8z M116.3,242.9c0.2,0,0.4,0,0.6,0.1l0.5,0.2
		c0.8,0.3,1.1,1.2,0.8,2c-0.3,0.8-1.2,1.1-2,0.8l-0.6-0.2c-0.8-0.3-1.1-1.2-0.8-2C115.1,243.2,115.7,242.9,116.3,242.9z M188,245.2
		c0.6,0,1.2,0.4,1.4,1c0.3,0.8-0.1,1.6-0.9,1.9l-0.6,0.2c-0.8,0.3-1.6-0.1-1.9-0.9c-0.3-0.8,0.1-1.6,0.9-1.9l0.5-0.2
		C187.7,245.3,187.9,245.2,188,245.2z M122.4,245.3c0.2,0,0.3,0,0.5,0.1l0.6,0.2c0.8,0.3,1.2,1.1,0.9,1.9c-0.3,0.8-1.1,1.2-1.9,0.9
		l-0.6-0.2c-0.8-0.3-1.2-1.1-0.9-1.9C121.2,245.7,121.8,245.3,122.4,245.3z M181.7,247.3c0.7,0,1.3,0.4,1.5,1.1
		c0.2,0.8-0.2,1.6-1,1.9l-0.6,0.2c-0.8,0.2-1.6-0.2-1.9-1c-0.2-0.8,0.2-1.6,1-1.9l0.6-0.2C181.5,247.3,181.6,247.3,181.7,247.3z
		 M128.8,247.3c0.1,0,0.2,0,0.4,0.1l0.3,0.1c0.8,0.2,1.4,1.1,1.2,1.9c-0.2,0.8-0.9,1.3-1.7,1.1l-0.3-0.1c-0.8-0.2-1.4-1.1-1.2-1.9
		C127.6,247.8,128.2,247.3,128.8,247.3z M175.3,248.9c0.7,0,1.3,0.5,1.5,1.2c0.2,0.8-0.4,1.6-1.2,1.8L175,252
		c-0.8,0.2-1.6-0.4-1.8-1.2s0.4-1.6,1.2-1.8l0.6-0.1C175.1,248.9,175.2,248.9,175.3,248.9z M135.2,248.9c0.1,0,0.2,0,0.3,0l0.6,0.1
		c0.8,0.2,1.3,1,1.2,1.8c-0.2,0.8-1,1.4-1.8,1.2l-0.6-0.1c-0.8-0.2-1.3-1-1.2-1.8C133.9,249.4,134.5,248.9,135.2,248.9z M141.7,250
		c0.1,0,0.1,0,0.2,0l0.6,0.1c0.8,0.1,1.4,0.9,1.3,1.7c-0.1,0.8-0.9,1.4-1.7,1.3l-0.6-0.1c-0.8-0.1-1.4-0.9-1.3-1.7
		C140.3,250.6,141,250,141.7,250z M168.5,250c0.8,0,1.5,0.5,1.6,1.3s-0.3,1.6-1.2,1.7h-0.3h-0.3c-0.8,0.1-1.6-0.5-1.7-1.3
		c-0.1-0.8,0.5-1.6,1.3-1.7h0.3C168.4,250,168.4,250,168.5,250z M162.2,250.7c0.8,0,1.4,0.6,1.5,1.4c0.1,0.8-0.6,1.6-1.4,1.6h-0.6
		c-0.8,0-1.6-0.6-1.6-1.4c-0.1-0.8,0.6-1.5,1.4-1.6h0.6C162.1,250.7,162.1,250.7,162.2,250.7z M148.3,250.7h0.1h0.6
		c0.8,0.1,1.5,0.8,1.4,1.6s-0.8,1.4-1.6,1.4h-0.6c-0.8-0.1-1.5-0.8-1.4-1.6C146.9,251.3,147.5,250.7,148.3,250.7z M155.5,250.9
		c0.8,0,1.5,0.7,1.5,1.5s-0.7,1.5-1.5,1.5h-0.4l-0.2-1.5v-1.5H155.5z"/>
	<g>
		<path class="st1" d="M146.1,226.8c-0.3,0-0.6-0.1-0.9-0.4l-16.8-16.8c-0.2-0.2-0.4-0.5-0.4-0.9l0.2-51.5l-8.5-8.5l-25.2,25.2
			c-0.5,0.5-1.3,0.5-1.8,0l-11.4-11.4c-0.5-0.5-0.5-1.3,0-1.8l75.2-75.2c0.5-0.5,1.3-0.5,1.8,0l35.8,35.8c6.6,6.7,10.1,13.9,10.1,21
			c0,6.5-3,12.8-8.6,18.3s-11.6,8.3-17.7,8.3c-6.2,0-12.4-3-18-8.6L137.5,138c-0.4-0.4-0.5-0.9-0.2-1.4c0.2-0.5,0.7-0.8,1.2-0.7
			l18.9,1.6c0.3,0,0.6,0.2,0.8,0.4l9.1,9.1c4.9,4.9,10.9,5,15.4,0.5c4.4-4.4,4.1-10.3-0.9-15.2L159,109.4l-27.7,27.7l24.8,24.8
			c14.6,14.3,29.9,15.2,42.6,2.4c6.2-6.2,9.7-14,9.8-21.8c0.1-8.2-3.5-16.1-10.3-22.9l-33.3-33.3c-0.4-0.4-0.5-1-0.2-1.4
			c0.2-0.5,0.7-0.8,1.3-0.7l19.6,2.7c0.3,0,0.5,0.2,0.7,0.4l23.8,23.8c19.5,19.5,19.6,45.5,0.2,64.9c-9.5,9.5-20.4,14.5-31.5,14.5
			s-21.9-4.9-31.4-14.1v49.1c0,0.5-0.3,1-0.8,1.2C146.4,226.7,146.3,226.8,146.1,226.8z M130.6,208.2l14.3,14.3v-49.1
			c0-0.5,0.3-1,0.8-1.2s1-0.1,1.4,0.3l1.5,1.5c9.2,9.2,19.6,14,30.3,14c10.5,0,20.8-4.8,29.8-13.8c9.2-9.2,14-19.9,13.8-31
			c-0.2-10.8-5-21.3-14-30.4L185,89.3l-15.5-2.1L200,118c14.6,14.6,14.8,33.9,0.5,48.2c-6.5,6.5-13.6,9.8-21.1,9.8
			c-8.4,0-16.8-4.1-25.1-12.2L128.6,138c-0.2-0.2-0.4-0.6-0.4-0.9c0-0.3,0.1-0.7,0.4-0.9l29.5-29.5c0.2-0.2,0.5-0.4,0.9-0.4l0,0
			c0.3,0,0.7,0.1,0.9,0.4l23.6,23.6c2.8,2.8,4.4,6,4.7,9.3c0.2,3.5-1.1,6.8-3.8,9.5c-5.5,5.5-13.1,5.3-18.9-0.5l-8.7-8.7l-15-1.3
			l19.9,19.9c10.3,10.3,21.8,10.4,32.2,0.3c5.1-5,7.8-10.7,7.9-16.5c0-6.4-3.2-13-9.4-19.2l-34.9-34.9L84,161.6l9.6,9.6l25.2-25.2
			c0.5-0.5,1.3-0.5,1.8,0l9.8,9.8c0.2,0.2,0.4,0.6,0.4,0.9L130.6,208.2z"/>
		<path class="st1" d="M152.1,230.7c-0.3,0-0.7-0.1-0.9-0.4c-0.2-0.2-0.4-0.6-0.4-0.9l0.4-50c0-0.7,0.6-1.2,1.3-1.2l0,0
			c0.7,0,1.3,0.6,1.3,1.3l-0.4,48.7h12.7l0.1-40.4c0-0.7,0.6-1.3,1.3-1.3l0,0c0.7,0,1.3,0.6,1.3,1.3l-0.1,41.6
			c0,0.7-0.6,1.3-1.3,1.3L152.1,230.7L152.1,230.7z M120.6,176.7L120.6,176.7l-20.4-0.1c-0.5,0-1-0.3-1.2-0.8s-0.1-1,0.3-1.4l24-24
			c0.5-0.5,1.3-0.5,1.8,0s0.5,1.3,0,1.8L103.3,174l16.8,0.1l8.1-8.1l0.1-9.4c0-0.7,0.6-1.2,1.3-1.2l0,0c0.7,0,1.3,0.6,1.2,1.3
			l-0.1,9.9c0,0.3-0.1,0.6-0.4,0.9l-8.8,8.8C121.2,176.6,120.9,176.7,120.6,176.7z M157.3,140c-0.3,0-0.6-0.1-0.9-0.4
			c-0.5-0.5-0.5-1.3,0-1.8l15.5-15.5l-8.5-8.5L139.3,138c-0.5,0.5-1.3,0.5-1.8,0s-0.5-1.3,0-1.8l25-25c0.5-0.5,1.3-0.5,1.8,0
			l10.3,10.2c0.2,0.2,0.4,0.6,0.4,0.9s-0.1,0.7-0.4,0.9l-16.3,16.3C158,139.8,157.7,140,157.3,140z"/>
	</g>
</g>
</svg>
